<?xml version="1.0" standalone="no"?>
<!DOCTYPE svg PUBLIC "-//W3C//DTD SVG 20010904//EN"
 "http://www.w3.org/TR/2001/REC-SVG-20010904/DTD/svg10.dtd">
<svg version="1.0" xmlns="http://www.w3.org/2000/svg"
 width="3000.000000pt" height="2000.000000pt" viewBox="0 0 3000.000000 2000.000000"
 preserveAspectRatio="xMidYMid meet">
<metadata>
Created by potrace 1.16, written by Peter Selinger 2001-2019
</metadata>
<g transform="translate(0.000000,2000.000000) scale(0.100000,-0.100000)"
fill="#000000" stroke="none">
<path d="M4603 15532 l-23 -3 0 -360 0 -359 388 1 c213 1 375 4 360 6 l-28 4
0 355 c0 195 -3 354 -7 354 -295 3 -674 4 -690 2z"/>
<path d="M17585 15490 c-102 -15 -194 -83 -247 -182 -21 -40 -23 -56 -23 -198
0 -148 1 -157 26 -205 36 -67 86 -117 150 -149 l53 -26 -775 0 c-754 0 -3684
20 -5969 40 -624 5 -1295 9 -1490 8 -266 -1 -190 -3 305 -8 2940 -31 5440 -50
7465 -56 2036 -6 2022 -6 2306 -64 606 -127 1186 -455 1934 -1095 214 -183
424 -358 570 -475 265 -211 584 -488 824 -715 6 -6 130 -121 276 -255 246
-228 696 -649 870 -814 81 -78 233 -222 375 -356 172 -163 705 -671 1100
-1049 102 -98 309 -297 515 -496 486 -469 621 -596 630 -593 5 1 6 8 2 13 -7
10 -162 160 -417 405 -66 64 -183 176 -260 250 -212 204 -389 373 -500 479
-151 144 -297 283 -430 411 -67 63 -161 153 -210 200 -50 47 -187 178 -305
291 -231 220 -511 485 -735 695 -77 72 -219 205 -315 295 -708 663 -1052 970
-1380 1234 -118 95 -296 242 -395 325 -314 265 -515 430 -634 519 -420 317
-769 515 -1126 640 -318 112 -570 158 -926 168 l-207 6 50 25 c66 33 117 85
151 156 27 54 28 65 29 191 0 124 -2 138 -27 194 -44 98 -131 166 -243 190
-60 12 -932 14 -1017 1z"/>
<path d="M2929 14288 c-8 -46 -8 -7080 0 -7283 7 -188 8 -158 11 295 3 626 -1
7004 -5 7008 -1 2 -4 -7 -6 -20z"/>
<path d="M11251 13549 l4 -713 -2560 3 c-1724 2 -2561 6 -2564 13 -9 26 -69
81 -122 114 -32 20 -59 44 -59 53 0 12 -2 13 -8 4 -6 -10 -17 -9 -50 4 -23 9
-42 21 -42 28 0 6 -14 33 -32 61 -18 27 -32 51 -31 54 1 3 -30 28 -68 55 -70
50 -78 57 -133 122 -28 33 -92 73 -118 73 -6 0 11 -11 39 -25 28 -15 63 -42
78 -60 14 -19 24 -35 22 -35 -2 0 -33 13 -68 29 -239 108 -423 103 -664 -17
-51 -25 -66 -30 -55 -16 8 11 -4 2 -27 -18 -68 -60 -79 -63 -114 -34 -41 34
-127 59 -195 54 -45 -2 -52 -1 -37 10 9 6 14 12 10 12 -12 0 -82 -35 -96 -48
-7 -7 -21 -10 -30 -8 -50 15 -72 16 -111 6 -24 -6 -57 -26 -74 -43 -17 -17
-40 -32 -51 -33 -11 -1 -27 -4 -35 -7 -8 -3 -53 -7 -100 -10 -138 -6 -225 -56
-249 -142 -10 -37 -45 -89 -100 -147 l-35 -38 -256 -2 -255 -3 252 -2 c234 -3
252 -5 247 -21 -5 -16 -5 -16 6 1 15 24 76 23 89 -1 6 -11 6 -24 0 -33 -12
-19 -11 -76 2 -100 8 -16 5 -26 -13 -49 -34 -43 -63 -39 -82 13 -9 23 -14 30
-11 15 3 -14 8 -33 11 -42 5 -14 -14 -16 -185 -16 l-192 0 6 -387 c8 -537 25
-2270 25 -2546 l0 -227 -45 0 -45 0 0 -160 0 -160 158 0 c86 0 298 0 470 0
210 0 312 -3 312 -10 0 -6 -27 -63 -59 -128 -33 -64 -66 -135 -74 -157 -8 -22
-33 -90 -56 -152 -75 -206 -146 -511 -190 -818 -20 -136 -23 -168 -37 -326
l-7 -76 49 -9 49 -9 7 -65 c34 -308 68 -408 194 -576 56 -74 83 -154 52 -154
-7 0 -240 20 -516 45 -276 25 -511 45 -522 45 -12 0 -20 7 -21 18 0 10 -3 12
-6 5 -7 -18 -65 -16 -338 10 l-230 22 -7 54 c-3 30 -9 100 -13 155 -3 56 -8
108 -10 116 -10 38 -58 853 -72 1220 -5 107 -8 542 -8 965 1 625 4 812 18 995
9 124 19 263 22 310 33 519 97 1140 155 1515 11 72 36 230 55 352 19 123 35
233 34 245 -1 44 -80 -406 -99 -569 -5 -43 -23 -184 -39 -313 -202 -1583 -221
-3047 -64 -4964 l6 -78 -101 7 -102 7 0 -118 c0 -515 54 -1423 110 -1852 32
-241 86 -497 110 -525 9 -10 1159 -118 1515 -142 50 -3 103 -9 119 -12 l29 -5
-6 -117 c-4 -64 -10 -441 -13 -838 l-7 -723 56 0 57 0 0 -230 0 -230 -1387 -2
-1388 -2 1690 -7 c930 -3 1841 -10 2026 -14 209 -5 338 -4 342 2 3 5 45 8 94
6 353 -10 22450 2 22462 13 2 2 -574 4 -1280 5 l-1284 1 105 23 c634 141 1156
574 1417 1175 117 271 171 559 161 867 l-6 153 54 0 c29 0 55 -3 57 -8 8 -12
56 -258 93 -472 39 -233 41 -240 57 -240 7 0 306 63 666 138 l654 138 99 214
c54 118 112 243 128 278 71 150 103 440 103 937 0 530 -50 1036 -123 1244 -60
170 -230 335 -482 466 -119 62 -198 95 -247 104 -35 6 -35 7 -100 176 -73 192
-67 178 -79 174 -6 -2 19 -78 54 -169 35 -91 64 -168 64 -172 0 -5 -254 -8
-564 -8 l-564 0 -22 -72 c-76 -254 -82 -270 -99 -264 -9 3 -101 34 -206 70
-306 103 -626 176 -935 212 -118 13 -198 15 -430 10 -157 -3 -330 -12 -385
-20 -55 -7 -103 -11 -106 -7 -6 6 -40 1054 -39 1230 0 65 6 113 19 155 11 34
22 73 26 88 l5 28 312 2 312 3 -3 65 c-9 230 -89 434 -258 660 -78 105 -231
298 -325 411 l-38 45 0 177 c0 197 -12 256 -72 350 -55 86 -176 174 -278 202
-15 4 -83 73 -169 169 -439 491 -885 955 -1115 1160 -462 412 -904 683 -1392
856 -294 103 -769 175 -1399 210 -104 6 -215 13 -245 15 -30 2 -255 7 -499 11
l-443 7 6 -104 c9 -148 51 -1143 96 -2304 26 -670 42 -1220 50 -1730 6 -400
13 -602 24 -705 24 -208 54 -447 66 -505 5 -27 21 -133 35 -235 29 -209 111
-706 250 -1512 52 -301 95 -552 95 -558 0 -11 -679 -14 -878 -3 l-122 6 0
3818 0 3819 163 3 162 3 -162 2 -163 2 0 709 0 709 -732 6 c-403 3 -1572 8
-2598 11 -1026 3 -2389 8 -3029 11 l-1164 7 4 -714z m2499 681 c1147 -5 2459
-9 2915 -10 457 0 1112 -3 1458 -7 l627 -6 0 -700 0 -700 -1242 6 c-684 4
-2364 10 -3734 14 l-2491 6 -6 450 c-4 248 -7 564 -7 704 l0 253 198 0 c108
-1 1135 -5 2282 -10z m-3352 -1416 l862 -6 0 -106 0 -105 -1592 6 c-875 4
-2020 7 -2545 7 -771 0 -953 2 -953 13 0 7 -23 35 -50 62 l-50 49 25 13 c14 8
28 26 31 41 4 15 8 30 10 34 4 7 2870 1 4262 -8z m7265 -14 l1087 0 0 -100 0
-100 -3735 0 -3735 0 0 107 0 106 2648 -6 c1456 -4 3136 -7 3735 -7z m2308
-20 c873 -35 1425 -108 1779 -235 594 -213 1078 -542 1670 -1134 245 -245 773
-810 932 -996 16 -20 15 -20 -153 -20 l-170 1 -77 79 c-43 44 -212 221 -377
394 -411 430 -1046 1048 -1160 1130 -191 135 -410 219 -705 270 -340 60 -1246
151 -1759 177 l-134 7 7 -239 c23 -779 103 -2295 137 -2574 28 -235 122 -426
293 -593 263 -258 666 -409 1236 -462 250 -24 789 -43 1923 -71 l267 -6 0 -37
c0 -101 62 -223 157 -310 111 -102 232 -132 462 -114 164 13 231 41 321 134
33 34 60 66 60 71 0 5 4 7 10 3 5 -3 9 -101 10 -237 0 -127 4 -349 10 -492 5
-144 12 -329 15 -412 l5 -151 -173 -33 c-477 -90 -870 -255 -1206 -504 -134
-100 -373 -340 -471 -473 -152 -208 -290 -462 -384 -713 -26 -69 -52 -134 -57
-145 -9 -19 -9 -19 -6 1 4 21 4 21 -387 27 -215 4 -764 10 -1221 13 -456 4
-875 9 -930 13 l-99 6 -8 40 c-83 476 -252 1481 -298 1775 -18 113 -39 243
-46 290 -22 139 -93 716 -104 845 -5 66 -10 217 -10 335 0 118 -4 343 -10 500
-5 157 -12 364 -15 460 -11 379 -25 781 -30 895 -3 66 -10 237 -15 380 -28
726 -76 1849 -86 2013 l-6 102 275 0 c151 0 389 -5 528 -10z m-16391 -214 c0
-16 -20 -46 -55 -84 -30 -33 -55 -63 -55 -67 0 -3 12 8 26 25 15 17 28 29 30
27 3 -2 -5 -24 -16 -48 -11 -24 -20 -62 -20 -84 0 -30 -3 -36 -10 -25 -5 8
-10 11 -10 5 0 -18 64 -75 85 -75 20 0 22 -4 17 -52 -3 -29 -11 -58 -18 -66
-8 -7 -14 -26 -14 -42 0 -45 37 -67 125 -75 41 -4 82 -13 92 -20 17 -13 16
-16 -13 -47 -18 -18 -37 -43 -43 -55 -16 -31 -14 -109 4 -142 37 -73 170 -151
292 -171 67 -11 72 -13 78 -40 9 -40 61 -88 110 -101 55 -15 128 -5 183 26 31
17 49 22 56 15 7 -7 5 -10 -7 -10 -9 0 -17 -6 -17 -13 0 -7 -20 -31 -45 -55
-105 -99 -248 -310 -306 -452 -89 -222 -101 -548 -44 -1240 8 -102 18 -200 21
-217 l5 -33 -399 0 -399 0 -7 1078 c-3 592 -9 1299 -12 1570 l-7 492 187 0
186 0 0 -24z m7670 -3 c0 -16 7 -327 15 -693 8 -366 19 -960 24 -1320 6 -360
13 -756 16 -880 3 -124 10 -524 15 -890 6 -366 14 -836 20 -1045 9 -350 23
-961 24 -1080 l1 -50 -370 4 c-203 2 -371 4 -372 5 -1 1 24 108 56 237 33 128
56 237 53 240 -9 8 -253 117 -304 135 -20 7 -79 31 -131 54 l-94 41 -23 142
c-20 131 -136 776 -210 1182 -18 94 -44 224 -60 290 -16 66 -32 137 -35 158
l-7 37 53 1 c61 1 56 6 -11 11 l-45 4 -9 58 -9 58 -136 65 c-75 36 -251 122
-391 190 l-255 125 -64 -33 c-35 -19 -107 -64 -160 -101 l-96 -68 -1439 7
c-1112 5 -1438 4 -1435 -6 3 -9 334 -11 1427 -11 782 0 1422 -2 1422 -4 0 -2
-36 -39 -81 -82 -45 -44 -101 -105 -126 -136 l-44 -58 -1060 0 c-704 0 -1058
-3 -1054 -10 7 -12 3 -12 -19 -4 -9 3 -13 10 -10 15 3 5 0 9 -6 9 -11 0 -86
47 -108 67 -18 18 -23 16 -15 -4 6 -16 5 -16 -10 -4 -9 7 -14 17 -11 22 3 5
-3 6 -12 2 -10 -4 -15 -2 -11 3 8 14 -50 47 -65 38 -7 -5 -8 -3 -3 6 6 10 4
11 -11 5 -16 -6 -74 -15 -74 -11 0 1 10 10 22 20 18 15 20 16 15 2 -7 -18 1
-20 22 -7 10 7 8 12 -10 25 -13 9 -29 16 -35 16 -7 0 -14 5 -16 11 -2 6 -17
13 -32 14 -16 2 -34 9 -40 15 -8 10 -5 9 13 0 14 -7 21 -8 17 -1 -4 6 -25 16
-47 23 -23 6 -42 17 -44 22 -2 6 -6 20 -11 31 -4 11 -7 23 -6 27 1 4 9 134 17
290 27 484 1 602 -179 813 -133 157 -395 434 -404 427 -1 -2 -10 2 -20 7 -10
6 -12 11 -4 11 17 0 -6 42 -47 89 -28 31 -30 37 -26 94 3 34 9 65 13 69 5 5
65 3 135 -3 138 -12 182 -8 218 20 13 10 46 20 72 23 39 5 57 13 87 43 21 20
46 52 56 70 10 19 29 37 43 40 32 8 107 62 125 90 8 12 19 41 26 64 7 25 26
57 50 81 38 38 80 117 80 150 0 10 12 23 28 29 44 19 80 58 94 102 16 54 -9
201 -57 347 l-35 103 31 27 c24 21 32 39 36 75 l6 47 2528 0 2529 0 0 -27z
m-6860 -568 c36 -44 77 -143 79 -194 1 -30 4 -59 7 -63 3 -5 0 -7 -8 -6 -8 2
-12 -4 -10 -15 2 -14 -1 -17 -15 -13 -10 3 -37 10 -61 15 -52 11 -78 32 -92
77 -14 42 -6 83 32 157 31 58 46 68 68 42z m-355 -2607 c6 -47 25 -218 25
-230 0 -5 -135 -8 -300 -8 l-300 0 0 140 0 140 284 0 285 0 6 -42z m11798 -94
l2917 -6 0 -927 c0 -509 3 -1438 7 -2063 l6 -1138 -124 0 c-425 -1 -5595 54
-5601 59 -8 7 -93 374 -149 640 -73 345 -186 526 -398 639 -147 78 -178 83
-672 95 l-436 10 -8 361 c-5 199 -9 429 -10 511 -7 536 -17 1116 -20 1205 -2
58 -7 223 -11 368 l-7 263 794 -6 c437 -3 2107 -8 3712 -11z m-7418 -228 c-84
-151 -122 -330 -142 -676 -4 -74 -9 -123 -11 -109 l-3 27 -357 6 c-196 4 -368
5 -380 2 -20 -4 -22 -3 -12 9 10 12 8 25 -10 67 -27 63 -56 90 -90 83 -17 -4
-21 -3 -12 3 10 7 -2 20 -48 48 -34 22 -74 47 -89 56 -14 10 -37 23 -51 30
-14 7 -44 26 -67 43 -22 16 -56 39 -75 50 -18 11 -49 30 -68 42 -68 42 -111
63 -121 58 -5 -3 -7 0 -4 7 3 8 -11 21 -35 32 -22 11 -40 22 -40 26 0 3 -16
12 -35 20 -19 8 -35 18 -35 22 0 5 -4 7 -9 3 -5 -3 -13 -1 -16 5 -4 6 -16 8
-28 5 -15 -4 -18 -3 -9 3 15 10 1 25 -35 36 -13 4 -23 12 -23 18 0 5 -7 7 -16
4 -8 -3 -13 -2 -10 3 3 4 -7 14 -21 22 -15 8 -63 38 -107 67 l-81 52 1038 0
1038 0 -36 -64z m-2448 -252 c65 -25 136 -52 158 -59 22 -7 58 -22 80 -33 22
-11 99 -41 170 -66 72 -26 139 -51 150 -56 32 -14 86 -36 151 -60 52 -20 64
-29 81 -64 11 -23 25 -40 31 -39 6 2 9 -4 6 -12 -7 -17 52 -84 76 -87 8 -1
-26 -4 -77 -7 -84 -6 -95 -9 -122 -35 -26 -25 -31 -37 -31 -77 0 -57 26 -94
78 -109 20 -5 120 -10 222 -11 102 0 179 -3 173 -6 -8 -3 -13 -23 -13 -49 0
-25 -7 -61 -15 -80 -17 -42 -13 -54 21 -54 14 0 22 4 19 10 -3 5 0 7 8 4 9 -3
19 6 27 26 7 18 19 38 26 45 7 7 14 33 15 59 l3 47 37 -3 c21 -1 36 -5 33 -9
-3 -5 -11 -6 -20 -2 -12 4 -14 0 -8 -21 6 -26 0 -47 -38 -134 -11 -24 -17 -50
-14 -58 6 -16 56 -19 56 -4 0 6 8 10 18 10 10 0 23 5 30 12 9 9 12 9 12 0 0
-22 28 -12 79 28 28 22 51 37 51 33 0 -5 7 1 15 11 8 11 15 15 15 10 0 -6 -5
-15 -12 -22 -9 -9 -8 -17 2 -37 7 -14 16 -25 20 -25 10 0 32 69 25 80 -3 5 -3
10 2 10 9 0 32 61 37 95 2 15 11 21 39 23 31 3 37 0 41 -20 3 -13 7 -138 10
-278 3 -140 9 -367 12 -505 l7 -250 -189 0 c-481 0 -878 -64 -1374 -222 -96
-31 -180 -57 -186 -60 -6 -2 -16 21 -24 54 -7 32 -32 128 -56 213 -24 85 -44
158 -44 163 0 4 11 7 25 7 27 0 30 6 16 43 -9 22 -7 25 21 31 17 3 50 6 74 6
24 0 44 4 44 9 0 5 -9 87 -20 182 -10 96 -26 253 -35 349 -9 96 -20 216 -26
265 -26 245 -50 775 -35 775 2 0 57 -21 123 -46z m1679 -1808 c3 -7 8 -95 12
-196 7 -176 6 -182 -13 -192 -31 -16 -85 -70 -103 -103 -14 -24 -16 -54 -14
-157 l2 -128 -199 0 c-442 0 -776 -87 -1104 -286 -58 -36 -89 -50 -92 -41 -5
14 -189 681 -215 778 l-17 66 133 42 c344 108 751 190 1084 220 52 4 191 9
308 10 171 1 214 -2 218 -13z m17974 -36 c234 -21 535 -81 820 -164 139 -40
365 -117 376 -129 2 -2 -61 -217 -141 -478 -80 -261 -147 -478 -148 -482 -1
-5 -34 17 -72 48 -415 341 -985 490 -1652 434 -525 -44 -839 -190 -1203 -558
-198 -200 -306 -352 -420 -588 -171 -353 -312 -863 -371 -1341 l-12 -103 -231
6 c-127 3 -510 10 -851 15 -341 5 -753 12 -915 15 -162 3 -691 12 -1175 20
-484 8 -1045 17 -1247 21 -273 5 -368 4 -368 -5 0 -7 22 -11 63 -11 34 0 1115
-18 2401 -40 1287 -22 2340 -39 2342 -37 1 1 7 45 13 97 15 121 57 373 79 470
l18 75 56 3 57 3 0 -198 c-1 -355 54 -605 196 -900 265 -550 742 -937 1340
-1088 l130 -33 -6467 -1 c-3558 -1 -6468 1 -6468 3 0 2 30 18 67 36 43 22 90
56 132 99 110 110 161 233 161 386 0 154 -51 277 -161 386 -72 71 -181 133
-257 145 l-43 7 2 337 c1 186 5 343 9 350 6 9 66 10 258 5 l251 -8 5 -26 c3
-14 24 -145 46 -290 36 -235 40 -284 40 -447 0 -111 -4 -185 -10 -189 -5 -3
-10 -32 -10 -64 l0 -58 263 -6 c144 -3 381 -6 525 -7 l264 -1 -4 65 c-1 37 -3
66 -3 67 0 0 87 10 192 23 106 12 195 25 198 28 11 11 -7 37 -35 48 -22 9
-135 2 -576 -34 -302 -26 -577 -49 -612 -53 l-62 -6 2 209 3 209 95 12 c52 7
174 23 270 36 96 13 177 22 180 20 2 -2 6 -33 8 -68 4 -56 2 -65 -13 -65 -25
0 -75 -55 -75 -82 1 -22 2 -22 28 8 51 60 69 66 134 46 l56 -18 -20 -27 c-12
-17 -18 -38 -16 -59 l4 -33 18 43 c21 49 52 75 75 63 9 -5 33 -11 54 -15 l37
-7 -15 -29 c-17 -33 -20 -90 -5 -90 11 0 14 7 24 50 12 54 17 55 107 25 l83
-28 283 69 c281 68 310 79 264 104 -83 44 -366 119 -508 136 -35 3 -63 11 -63
16 0 6 -9 8 -21 5 -30 -8 -127 10 -143 26 -8 8 -16 25 -18 38 -3 22 2 25 92
45 82 18 95 23 92 40 -2 10 -14 70 -29 132 -14 62 -23 115 -21 118 3 2 929
-11 2058 -31 1130 -19 2056 -32 2059 -30 15 16 139 13 -2928 65 -657 11 -1196
22 -1198 24 -5 5 -115 497 -111 500 1 1 631 -10 1398 -25 767 -15 1544 -30
1725 -33 182 -4 537 -11 790 -17 396 -8 460 -7 467 5 13 24 73 56 105 56 27 0
113 -46 126 -67 3 -5 90 -10 194 -11 103 -2 510 -9 903 -17 393 -8 772 -15
841 -15 l127 0 22 -59 c27 -73 76 -133 133 -160 40 -20 64 -21 442 -25 220 -3
748 -6 1174 -8 l773 -3 134 490 c168 616 168 617 221 754 190 494 556 898
1031 1137 152 76 303 131 474 173 136 34 305 61 381 61 l48 0 -7 214 -7 213
34 6 c33 6 194 24 274 30 96 8 460 6 565 -3z m-886 -197 c4 -87 8 -177 10
-200 l3 -42 -66 -6 c-424 -40 -799 -176 -1126 -410 -172 -123 -323 -272 -456
-448 -143 -190 -240 -370 -318 -591 -28 -80 -238 -830 -299 -1068 l-24 -98
-142 0 c-77 0 -600 5 -1161 10 l-1020 10 -45 23 c-50 25 -116 110 -126 162
l-6 30 139 -3 c580 -12 2177 -41 2178 -39 2 1 30 182 64 402 73 473 108 603
242 896 340 739 864 1194 1634 1419 131 38 443 108 491 109 21 1 22 -4 28
-156z m-15476 -614 c615 -67 1146 -405 1464 -934 141 -234 242 -546 264 -817
l7 -87 66 -3 66 -3 -1 -135 c-2 -122 -16 -289 -31 -347 -5 -21 -11 -23 -79
-23 -43 0 -74 -4 -74 -10 0 -6 30 -10 70 -10 80 0 79 3 54 -95 -18 -73 -3 -65
-128 -69 -36 -1 -40 -4 -53 -41 -7 -22 -20 -54 -28 -72 -24 -50 -21 -53 54
-53 39 0 72 -3 74 -8 8 -12 -86 -212 -152 -324 -350 -588 -945 -958 -1619
-1008 -239 -17 -504 13 -722 82 -52 16 -98 33 -102 37 -4 3 27 27 70 53 129
78 126 73 51 96 -111 34 -251 91 -346 141 -87 46 -229 136 -238 151 -3 4 -48
-6 -102 -22 l-97 -28 -89 87 c-48 49 -116 123 -150 166 -74 94 -177 247 -177
264 0 8 20 10 75 6 41 -3 75 -2 75 2 0 4 -15 31 -34 59 -47 71 -132 243 -172
349 -144 376 -160 832 -43 1221 11 37 18 70 16 73 -3 2 -28 -2 -56 -11 -30 -9
-51 -11 -51 -5 0 5 16 54 36 107 45 122 127 287 196 397 l53 85 73 0 c39 0 72
4 72 9 0 4 39 50 88 101 346 369 755 572 1252 623 79 8 277 6 368 -4z m16119
-763 c286 -72 527 -212 712 -413 526 -570 506 -1440 -45 -1979 -197 -193 -432
-319 -704 -379 -117 -26 -372 -31 -505 -11 -460 71 -854 363 -1060 786 -144
297 -179 657 -94 977 111 421 414 769 821 945 195 84 331 108 583 104 164 -3
204 -7 292 -30z m-18157 19 c0 -2 -17 -30 -37 -62 -84 -132 -207 -421 -242
-570 -10 -40 -20 -57 -43 -71 -92 -58 -215 -210 -273 -335 -96 -208 -102 -482
-14 -693 80 -193 255 -373 441 -454 47 -20 60 -32 75 -64 22 -49 155 -252 215
-329 25 -31 79 -93 121 -137 41 -43 79 -84 83 -91 11 -18 -331 -5 -426 16
-271 60 -518 194 -711 385 -83 83 -182 209 -218 277 -9 17 0 128 44 525 51
474 95 905 111 1081 l6 77 72 66 c196 182 393 291 641 355 105 27 155 35 155
24z m4340 -105 l0 -80 -75 0 -75 0 0 80 0 80 75 0 75 0 0 -80z m396 0 c6 -41
9 -78 7 -82 -5 -10 -61 -10 -181 -2 l-92 7 0 56 c0 106 -5 102 133 99 l121 -3
12 -75z m-534 -1062 l2 -63 3 63 4 62 59 0 60 0 0 -256 0 -255 -144 3 c-80 2
-147 6 -150 9 -3 3 1 54 9 115 8 60 15 171 15 247 l0 137 70 0 70 0 2 -62z
m685 48 c2 -2 19 -106 38 -232 19 -126 38 -239 40 -251 5 -23 4 -23 -98 -23
-57 0 -172 3 -255 7 l-152 6 0 248 c0 156 4 249 10 251 11 3 413 -2 417 -6z
m-6851 -118 c-9 -100 -14 -178 -57 -793 -21 -319 -44 -638 -49 -710 -15 -195
-22 -175 61 -175 l72 0 -7 -52 c-3 -29 -6 -117 -6 -196 l0 -142 -38 24 c-42
26 -170 92 -207 106 -22 8 -26 4 -49 -43 l-25 -52 -1 35 c0 20 7 46 16 58 15
22 14 23 -38 46 l-53 24 -27 -26 c-15 -14 -30 -34 -34 -44 -3 -10 -10 -18 -16
-18 -17 0 1 53 27 76 l24 22 -51 21 c-68 28 -87 27 -131 -10 -24 -19 -37 -25
-37 -16 0 18 38 53 73 66 23 9 27 16 27 52 l0 41 125 -6 125 -5 0 28 c0 16 4
107 10 202 5 96 16 302 25 459 8 157 17 312 19 345 3 33 13 183 23 333 l17
272 67 0 67 0 7 53 c9 73 14 87 32 87 12 0 14 -11 9 -62z m6197 -398 l98 0 -3
-77 -3 -78 -167 -3 c-120 -2 -168 1 -168 9 0 11 27 122 36 148 3 10 17 12 57
7 28 -3 96 -6 150 -6z m-48 -326 l140 -7 -3 -177 -3 -178 -69 -16 c-134 -30
-267 -122 -340 -236 -113 -176 -113 -414 0 -590 45 -70 138 -153 215 -191 36
-17 65 -33 65 -35 0 -2 -444 -4 -987 -4 -542 0 -984 2 -982 4 2 2 58 16 124
31 637 143 1191 578 1485 1165 31 63 65 138 75 165 30 82 22 80 280 69z m135
-661 c-1 -93 -1 -174 -1 -180 1 -9 20 -13 61 -13 l60 0 0 143 c0 78 3 159 6
180 8 44 12 43 110 -3 203 -98 289 -347 191 -554 -60 -126 -174 -213 -314
-237 -177 -31 -366 70 -446 238 -30 64 -32 75 -32 178 0 99 3 116 28 169 35
75 85 137 143 177 49 34 135 68 172 69 l23 0 -1 -167z m-5408 -340 c242 -195
510 -327 823 -404 l110 -27 -255 -1 -255 0 -65 50 c-36 27 -122 79 -192 114
l-127 65 -15 -22 c-7 -13 -17 -33 -21 -45 -3 -13 -11 -23 -16 -23 -16 0 -9 47
11 73 l21 26 -48 21 c-59 26 -88 20 -115 -25 -24 -41 -28 -43 -28 -11 0 12 11
35 25 50 l24 26 -37 16 c-65 27 -88 28 -126 5 -19 -12 -37 -27 -39 -34 -2 -7
-8 -9 -12 -4 -14 12 29 61 63 72 27 8 32 14 32 41 0 17 3 45 6 62 6 30 8 31
68 35 33 2 67 4 73 5 7 1 50 -28 95 -65z m2223 -331 c61 -22 164 -52 230 -67
66 -15 122 -29 124 -31 2 -2 -211 -4 -475 -3 l-479 1 130 33 c125 31 273 81
311 104 22 13 17 14 159 -37z"/>
<path d="M19740 8631 c-93 -29 -167 -98 -197 -185 -16 -45 -18 -90 -18 -366
l0 -315 26 -56 c31 -66 86 -122 148 -151 39 -19 64 -22 171 -22 115 -1 129 1
180 25 70 34 116 80 149 149 l26 55 0 315 c0 285 -2 320 -19 365 -28 74 -77
129 -148 164 -58 29 -67 31 -177 30 -64 0 -127 -4 -141 -8z"/>
<path d="M9266 11375 c-144 -30 -291 -124 -364 -234 -68 -102 -85 -160 -79
-271 5 -116 33 -193 91 -256 l41 -44 120 24 c302 61 542 136 1203 377 126 46
172 88 172 157 0 25 -8 42 -31 63 -38 36 -88 45 -159 31 -107 -22 -167 -11
-371 68 -69 27 -164 59 -210 71 -110 27 -315 34 -413 14z"/>
<path d="M10210 9440 l-355 -5 353 -3 353 -2 -3 -150 -3 -150 258 0 257 0 0
160 0 160 -252 -2 c-139 -2 -413 -5 -608 -8z"/>
<path d="M17941 8662 c-65 -25 -134 -96 -160 -167 -21 -56 -22 -69 -19 -384
l3 -326 29 -49 c72 -123 137 -155 317 -157 97 -1 123 2 162 19 73 32 112 67
148 135 l34 62 0 335 c0 320 -1 337 -21 380 -27 57 -85 113 -148 145 -45 23
-61 25 -175 24 -92 0 -138 -5 -170 -17z"/>
<path d="M17717 3326 c2 -340 1 -701 -3 -803 l-7 -185 -18 70 c-22 87 -70 198
-117 272 -64 101 -214 235 -330 294 -55 28 -47 11 10 -24 75 -47 193 -145 225
-188 16 -20 31 -39 35 -42 14 -11 78 -110 106 -166 17 -33 40 -91 51 -129 27
-90 52 -284 40 -307 -5 -9 -9 -32 -8 -50 1 -30 2 -29 15 17 7 28 29 116 49
198 59 244 113 347 254 487 75 74 113 103 174 133 47 24 84 36 95 32 13 -5 14
-4 5 6 -17 17 -88 -4 -159 -47 -143 -86 -265 -242 -334 -426 -17 -47 -62 -222
-73 -288 -3 -14 -2 137 2 335 10 605 6 1190 -10 1360 -4 39 -5 -208 -2 -549z"/>
<path d="M8795 6115 c-276 -45 -527 -137 -739 -272 -39 -25 -73 -47 -75 -49
-2 -2 4 -14 15 -26 19 -23 19 -23 -2 -5 -11 9 -24 17 -29 17 -9 0 -70 -48
-163 -128 -54 -47 -60 -57 -50 -71 11 -14 11 -14 -3 -4 -13 10 -23 5 -60 -35
-25 -26 -67 -72 -93 -103 l-47 -57 5 -83 c2 -46 5 -112 5 -146 l1 -63 148 0
c82 0 152 3 155 7 4 3 -20 26 -53 50 -33 24 -60 45 -60 48 0 3 34 -20 76 -50
l77 -55 155 0 156 0 -35 38 -34 37 40 -37 c37 -35 46 -38 98 -38 l57 0 81 -82
c96 -99 187 -225 251 -348 46 -89 118 -284 118 -320 0 -11 4 -21 9 -24 4 -3 6
-17 4 -30 -4 -22 -1 -25 28 -29 l34 -4 -32 -1 c-31 -2 -33 -5 -33 -36 0 -24 5
-36 18 -39 16 -4 16 -5 0 -6 -11 -1 -18 -9 -18 -21 0 -14 5 -18 18 -14 16 5
16 5 0 -6 -10 -6 -18 -20 -18 -31 0 -20 2 -20 45 5 25 15 45 25 45 22 0 -3
-20 -17 -45 -32 -35 -20 -45 -32 -45 -51 0 -23 2 -24 18 -12 16 13 16 13 0 -7
-10 -11 -18 -36 -18 -54 l0 -34 33 30 32 29 -33 -36 c-30 -32 -33 -42 -30 -85
l3 -49 34 53 c18 28 35 52 38 52 5 0 -1 -11 -55 -93 -18 -26 -26 -54 -28 -97
-2 -32 -19 -108 -39 -167 -89 -278 -267 -523 -509 -701 -39 -29 -78 -58 -86
-65 -8 -6 -17 -12 -20 -13 -14 -1 -180 -89 -180 -95 0 -14 168 -114 287 -171
121 -58 315 -128 354 -128 44 0 359 295 343 321 -4 7 -3 9 3 6 16 -10 136 151
208 278 75 132 176 365 192 445 3 17 12 30 19 30 18 0 17 4 -2 41 -8 17 -14
33 -11 35 2 2 12 -14 22 -36 11 -25 25 -40 37 -41 75 -2 118 -1 119 5 1 18
-96 156 -111 156 -26 0 -27 5 -14 87 17 102 17 205 2 223 -11 12 -10 12 5 0
18 -13 18 -8 12 131 -4 79 -9 147 -11 150 -12 20 260 19 280 -1 15 -15 26 -12
20 4 -3 8 -13 17 -22 19 -15 4 -15 5 1 6 21 1 22 -8 -9 130 -47 212 -156 533
-187 553 -7 4 -9 8 -4 8 4 0 -9 31 -28 70 l-35 69 77 3 76 3 121 202 c67 111
125 205 130 210 5 4 0 -8 -11 -27 -43 -73 -207 -346 -221 -367 l-14 -23 105 0
105 0 51 61 c28 33 51 58 51 54 0 -4 -21 -31 -46 -61 l-46 -54 137 0 c117 0
142 3 159 18 18 15 19 15 8 0 -11 -14 -10 -17 9 -20 18 -2 26 -17 47 -88 14
-47 29 -87 33 -88 5 -2 7 -8 3 -13 -3 -5 29 -135 71 -288 l77 -278 301 -7
c165 -3 301 -5 303 -3 7 7 -18 208 -38 302 -36 179 -135 438 -212 555 -12 19
-44 69 -71 110 -27 41 -64 94 -84 117 l-35 43 -36 -33 c-19 -18 -44 -39 -55
-47 -12 -8 4 9 35 37 l55 53 -130 127 c-157 154 -273 238 -463 335 -139 71
-143 72 -158 53 -14 -19 -15 -19 -12 4 3 20 -5 26 -62 46 -72 27 -188 58 -300
81 -110 22 -478 28 -595 9z"/>
<path d="M7298 4874 c-23 -5 -29 -14 -48 -76 -21 -70 -52 -204 -65 -283 -4
-22 -9 -126 -12 -230 -4 -147 -2 -216 11 -305 32 -216 97 -425 188 -603 36
-68 42 -76 57 -65 14 12 14 11 3 -4 -15 -19 -15 -18 36 -95 39 -61 44 -62 154
-33 195 51 361 162 478 320 55 74 135 234 125 250 -3 6 -2 10 3 10 19 0 37
127 37 265 -1 145 -14 219 -56 312 -10 23 -19 44 -19 48 0 7 -74 128 -91 150
-129 160 -291 268 -469 316 -73 19 -273 33 -332 23z"/>
<path d="M9731 3896 l1 -85 82 0 c134 0 698 -11 904 -17 123 -4 192 -2 192 4
0 11 -238 19 -785 27 -187 3 -348 5 -357 5 -16 0 -18 10 -18 75 0 45 -4 75
-10 75 -7 0 -10 -32 -9 -84z"/>
<path d="M9460 3621 c31 -58 91 -139 107 -143 10 -3 54 -6 98 -7 l80 -2 -25
28 -25 28 31 -28 c31 -27 31 -28 155 -25 l124 3 -46 35 c-83 63 -151 120 -144
120 4 0 51 -36 105 -79 l97 -79 203 -4 c143 -3 197 -1 187 6 -8 6 -24 17 -34
24 -10 7 5 1 34 -13 50 -24 61 -25 220 -25 l168 0 23 60 c13 33 20 65 17 70
-3 6 -2 10 3 10 6 0 12 6 15 14 5 13 -38 15 -296 16 -166 1 -326 3 -354 4 -29
2 -50 0 -47 -5 2 -5 43 -29 89 -55 47 -25 85 -48 85 -51 0 -3 -35 14 -77 38
-153 85 -118 78 -401 79 l-257 1 55 -56 c30 -30 51 -55 48 -55 -4 0 -30 25
-59 55 l-52 55 -69 0 c-65 0 -68 -1 -58 -19z"/>
<path d="M24923 4871 c-441 -71 -756 -460 -730 -904 16 -272 153 -517 373
-663 163 -108 293 -147 489 -147 101 0 148 5 210 22 318 85 562 337 631 653
24 107 21 292 -5 393 -29 110 -97 246 -165 332 -110 137 -284 250 -453 294
-87 23 -268 33 -350 20z"/>
</g>
</svg>
