<svg width="587" height="416" viewBox="0 0 587 416" fill="none" xmlns="http://www.w3.org/2000/svg">
<g clip-path="url(#clip0)">
<path opacity="0.1" d="M195.153 415.766C223.74 415.766 246.914 412.042 246.914 407.449C246.914 402.855 223.74 399.131 195.153 399.131C166.567 399.131 143.393 402.855 143.393 407.449C143.393 412.042 166.567 415.766 195.153 415.766Z" fill="#00CFFC"/>
<path opacity="0.1" d="M476.515 416C512.187 416 541.104 412.276 541.104 407.683C541.104 403.089 512.187 399.365 476.515 399.365C440.844 399.365 411.926 403.089 411.926 407.683C411.926 412.276 440.844 416 476.515 416Z" fill="#00CFFC"/>
<path opacity="0.1" d="M7.35185 179.742H61.2636V253.26H11.2987C11.1659 254.014 11.0384 254.774 10.9003 255.534H61.2636V314.825C61.1733 314.798 61.0936 314.766 61.0086 314.734C59.585 314.171 58.172 313.576 56.759 312.938L55.856 312.529C54.4394 311.859 53.0229 311.151 51.6063 310.403C51.1123 310.143 50.6183 309.871 50.1296 309.595C42.2656 305.188 35.1215 299.603 28.9452 293.035C28.7646 292.859 28.5946 292.673 28.414 292.503C27.5535 291.568 26.7089 290.622 25.8908 289.655L24.9878 288.592C24.021 287.406 23.0861 286.189 22.1777 284.956C22.0449 284.776 21.9174 284.595 21.7793 284.425C18.085 279.3 15.0176 273.751 12.6426 267.896C12.5683 267.721 12.5045 267.53 12.4355 267.365C11.7059 265.487 11.0596 263.591 10.4966 261.678C10.2522 260.876 10.0185 260.084 9.81663 259.249C9.74226 259.005 9.67852 258.766 9.62008 258.527C6.60285 246.744 6.24695 234.504 6.24695 222.35C6.24695 220.931 6.24695 219.506 6.24695 218.098C6.24695 213.182 6.30538 208.234 6.39037 203.291C6.39037 202.01 6.44349 200.735 6.47005 199.449C6.54442 196.186 6.65066 192.922 6.78878 189.659C6.82065 188.75 6.86314 187.847 6.91095 186.943C6.91095 186.422 6.93751 185.902 6.99063 185.381C7.11812 183.489 7.22436 181.613 7.35185 179.742Z" fill="#00CFFC"/>
<path opacity="0.1" d="M61.2636 97.8855H31.6916C36.4987 90.3577 41.751 83.1239 47.4205 76.2229C51.8135 70.8232 56.4509 65.5617 61.2636 60.4915V97.8855Z" fill="#00CFFC"/>
<path opacity="0.1" d="M61.2636 100.16V177.467H7.52185C7.52185 177.244 7.55903 177.016 7.57497 176.792C7.62278 176.181 7.67059 175.57 7.72371 174.964C7.78214 174.252 7.84588 173.534 7.91494 172.838C7.984 172.142 8.05837 171.292 8.13805 170.521C8.21773 169.75 8.29209 168.969 8.3824 168.198C8.4727 167.428 8.55238 166.657 8.648 165.892C8.74362 165.127 8.82861 164.351 8.92954 163.585C9.00922 162.948 9.09421 162.315 9.1792 161.677C9.30138 160.779 9.42887 159.876 9.56698 158.983C9.56698 158.85 9.60416 158.712 9.62541 158.584C10.595 152.048 11.916 145.569 13.5829 139.175C15.3277 132.468 17.5557 125.896 20.2495 119.511C23.1125 112.831 26.4646 106.372 30.2786 100.187L61.2636 100.16Z" fill="#00CFFC"/>
<path opacity="0.1" d="M74.1346 179.737V253.26H189.283V179.737H74.1346ZM74.1346 255.529V318.667C74.7933 318.805 75.4467 318.938 76.0948 319.05C76.9765 319.22 77.853 319.374 78.7508 319.507C78.9207 319.534 79.096 319.56 79.282 319.576C79.6326 319.635 79.9938 319.682 80.3444 319.73C81.2315 319.852 82.1133 319.953 83.0004 320.033C83.42 320.076 83.845 320.113 84.27 320.145L85.2952 320.224C85.8529 320.267 86.4054 320.299 86.9525 320.315C87.2925 320.315 87.6325 320.347 87.9831 320.357C88.2487 320.357 88.5143 320.357 88.7905 320.357C89.0667 320.357 89.4598 320.357 89.7945 320.357C90.2513 320.357 90.7081 320.357 91.1597 320.357H91.7705C92.2274 320.357 92.6842 320.357 93.1357 320.315H93.1676C93.481 320.315 93.7997 320.315 94.1185 320.272C94.2069 320.278 94.2956 320.278 94.3841 320.272C94.6497 320.272 94.9153 320.272 95.1702 320.235H95.3562L97.1357 320.097C97.72 320.044 98.3096 319.975 98.9046 319.911L100.116 319.767C105.043 319.077 109.916 318.039 114.697 316.664C125.438 313.666 135.945 309.473 146.681 306.401C160.561 302.442 175.897 300.496 189.31 305.338V255.529H74.1346ZM189.283 97.8855V0.00533458C176.677 -0.131318 164.104 1.34393 151.871 4.39525C122.713 11.7242 96.5514 27.6203 74.1346 47.9223V97.8802H79.9141V100.15H74.1346V177.467H189.283V100.155H103.643V97.8855H189.283ZM337.186 64.823C329.972 64.5679 322.801 62.2826 316.315 58.7536C303.912 52.004 294.005 41.5819 282.934 32.7862C259.933 14.4665 231.408 3.41203 202.144 0.669668V97.8855H366.524L366.933 97.455L337.186 64.823ZM352.161 62.1656L368.038 79.5977V57.595C362.721 58.2541 358.062 59.8219 352.182 62.1444L352.161 62.1656ZM368.038 334.345V255.529H334.206C334.116 255.194 334.025 254.854 333.919 254.514C334.02 254.854 334.105 255.194 334.201 255.529H202.165V312.529C203.419 313.459 204.656 314.437 205.883 315.431C207.206 316.494 208.513 317.615 209.825 318.715L211.148 319.81C211.78 320.341 212.417 320.873 213.06 321.372C214.335 322.407 215.622 323.427 216.922 324.434C217.565 324.965 218.223 325.443 218.877 325.943C229.25 333.878 240.192 341.038 251.615 347.366C254.175 348.784 256.759 350.167 259.365 351.517C261.102 352.405 262.85 353.287 264.603 354.143C267.237 355.429 269.893 356.669 272.571 357.863C297.254 368.948 323.354 376.555 350.126 380.466C356.072 381.345 362.041 382.036 368.033 382.539V334.34H368.564L368.038 334.345ZM202.165 100.155V177.467H368.06V100.155H202.165ZM202.165 179.737V253.26H368.06V179.737H202.165ZM380.936 57.4994V82.0425L401.201 59.7953C394.487 58.7111 387.732 57.9369 380.936 57.4728V57.4994ZM380.936 179.763V253.26H542.289V179.737L380.936 179.763ZM541.699 340.181L542.267 255.529H380.936V383.384C391.329 383.821 401.738 383.697 412.118 383.012H412.298C417.256 382.7 422.191 382.247 427.103 381.651H427.214C453.419 378.6 479.042 371.76 503.283 361.344L541.699 340.181ZM573.401 191.843C572.796 190.414 572.164 188.995 571.521 187.592C570.32 184.934 569.051 182.351 567.744 179.769H555.154V253.26H586.984C586.968 232.447 581.704 211.189 573.417 191.817L573.401 191.843ZM555.154 255.556V328.366C564.121 319.767 571.696 309.93 577.152 298.684C583.712 285.142 586.713 270.479 586.958 255.545L555.154 255.556ZM555.154 158.34V177.473H566.565C563.113 170.886 559.309 164.491 555.17 158.313L555.154 158.34ZM445.727 71.9234C444.887 71.6045 444.048 71.2803 443.204 70.9667C434.296 67.6755 425.193 64.9385 415.948 62.7715L384.936 96.8226L384.341 97.455L384.739 97.8908H495.113C479.741 87.3043 463.168 78.5787 445.743 71.8968L445.727 71.9234ZM498.348 100.181H383.199L380.936 102.254V177.467H400.771H400.803H542.31V141.035C529.509 125.546 514.735 111.802 498.364 100.155L498.348 100.181Z" fill="#00CFFC"/>
<path opacity="0.1" d="M61.2636 139.154V177.467H7.52185C7.52185 177.244 7.55903 177.016 7.57497 176.792C7.62278 176.181 7.67059 175.57 7.72371 174.964C7.78214 174.252 7.84588 173.534 7.91494 172.838C7.984 172.142 8.05837 171.292 8.13805 170.521C8.21773 169.75 8.29209 168.969 8.3824 168.198C8.4727 167.428 8.55238 166.657 8.648 165.892C8.74362 165.127 8.82861 164.351 8.92954 163.585C9.00922 162.948 9.09421 162.315 9.1792 161.677C9.30138 160.779 9.42887 159.876 9.56698 158.983C9.56698 158.85 9.60416 158.712 9.62541 158.584C10.595 152.048 11.916 145.569 13.5829 139.175L61.2636 139.154Z" fill="#00CFFC"/>
<path opacity="0.1" d="M7.35185 179.742H61.2636V253.26H11.2987C11.1659 254.014 11.0384 254.774 10.9003 255.534H61.2636V314.825C61.1733 314.798 61.0936 314.766 61.0086 314.734C59.585 314.171 58.172 313.576 56.759 312.938L55.856 312.529C54.4394 311.859 53.0229 311.151 51.6063 310.403C51.1123 310.143 50.6183 309.871 50.1296 309.595C42.2656 305.188 35.1215 299.603 28.9452 293.035C28.7646 292.859 28.5946 292.673 28.414 292.503C27.5535 291.568 26.7089 290.622 25.8908 289.655L24.9878 288.592C24.021 287.406 23.0861 286.189 22.1777 284.956C22.0449 284.776 21.9174 284.595 21.7793 284.425C18.085 279.3 15.0176 273.751 12.6426 267.896C12.5683 267.721 12.5045 267.53 12.4355 267.365C11.7059 265.487 11.0596 263.591 10.4966 261.678C10.2522 260.876 10.0185 260.084 9.81663 259.249C9.74226 259.005 9.67852 258.766 9.62008 258.527C6.60285 246.744 6.24695 234.504 6.24695 222.35C6.24695 220.931 6.24695 219.506 6.24695 218.098C6.24695 213.182 6.30538 208.234 6.39037 203.291C6.39037 202.01 6.44349 200.735 6.47005 199.449C6.54442 196.186 6.65066 192.922 6.78878 189.659C6.82065 188.75 6.86314 187.847 6.91095 186.943C6.91095 186.422 6.93751 185.902 6.99063 185.381C7.11812 183.489 7.22436 181.613 7.35185 179.742Z" fill="#00CFFC"/>
<path opacity="0.1" d="M114.671 111.225V177.467H74.1346V111.225H79.9141V88.7974H103.638V111.225H114.671Z" fill="#00CFFC"/>
<path opacity="0.1" d="M114.671 179.737H74.1399V253.254H114.671V179.737Z" fill="#00CFFC"/>
<path opacity="0.1" d="M74.1346 255.534H114.671V316.653C109.889 318.028 105.016 319.063 100.089 319.751L98.878 319.9C98.2831 319.969 97.6934 320.028 97.1091 320.086C96.5248 320.145 95.9192 320.187 95.3296 320.224H95.1437C94.8887 320.224 94.6125 320.256 94.3628 320.262H94.0919C93.7732 320.262 93.4544 320.294 93.1357 320.304C92.6842 320.331 92.2327 320.336 91.7705 320.341C91.574 320.341 91.3881 320.341 91.1915 320.341C90.7347 320.341 90.2832 320.341 89.8263 320.341H88.8224C88.5514 320.341 88.2912 320.341 88.0096 320.341L86.9844 320.304C86.4532 320.304 85.8795 320.246 85.327 320.208L84.3071 320.134L83.0376 320.017C82.1451 319.937 81.258 319.836 80.3816 319.714L79.3191 319.565L78.7879 319.491C77.9008 319.353 77.0244 319.204 76.1319 319.034C75.4786 318.922 74.8305 318.784 74.1718 318.651L74.1346 255.534Z" fill="#00CFFC"/>
<path opacity="0.1" d="M368.06 103.402H334.636V177.462H368.06V103.402Z" fill="#00CFFC"/>
<path opacity="0.1" d="M368.065 179.737V253.26H202.165V221.547H290.531V240.255H334.636V179.737H368.065Z" fill="#00CFFC"/>
<path opacity="0.1" d="M368.591 334.361H368.06V382.592C362.075 382.085 356.107 381.396 350.158 380.525C323.373 376.601 297.261 368.978 272.571 357.874C265.442 354.664 258.458 351.159 251.62 347.361C240.197 341.03 229.253 333.869 218.877 325.938C216.27 323.939 213.697 321.895 211.158 319.805C209.4 318.354 207.652 316.866 205.883 315.42C204.656 314.426 203.419 313.448 202.165 312.513V255.534H334.195C334.105 255.194 334.015 254.854 333.919 254.519C334.02 254.854 334.116 255.194 334.206 255.534H368.06V334.33C368.24 334.335 368.415 334.351 368.591 334.361Z" fill="#00CFFC"/>
<path opacity="0.1" d="M455.23 97.8855H433.451V91.1146H443.214V70.9454C444.06 71.2537 444.903 71.5708 445.743 71.8968V91.1146H455.23V97.8855Z" fill="#00CFFC"/>
<path opacity="0.1" d="M507.702 177.467H400.782C400.782 177.467 400.782 177.467 400.819 177.494L400.771 177.467H380.936V103.407H386.556V158.148H412.24V125.729H433.456V100.16H455.235V125.75H476.451V158.17H507.702V177.467Z" fill="#00CFFC"/>
<path opacity="0.1" d="M380.936 179.737V253.26H507.702V179.737H380.936ZM542.113 339.804L542.289 281.608H507.702V255.566H380.936V383.384C391.329 383.821 401.738 383.697 412.117 383.012H412.298C417.256 382.7 422.191 382.247 427.103 381.651H427.214C453.419 378.6 479.042 371.76 503.282 361.344" fill="#00CFFC"/>
<path opacity="0.1" d="M557.407 255.534H586.979C586.718 270.463 583.722 285.126 577.167 298.668C571.712 309.919 564.132 319.757 555.176 328.351V281.581H557.407V255.534Z" fill="#00CFFC"/>
<path opacity="0.1" d="M586.995 253.26H557.407V191.817H573.417C581.704 211.189 586.968 232.447 586.995 253.26Z" fill="#00CFFC"/>
<path opacity="0.1" d="M368.065 123.991H350.158V147.211H368.065V123.991Z" fill="#00CFFC"/>
<path opacity="0.1" d="M368.065 172.121H350.158V177.467H368.065V172.121Z" fill="#00CFFC"/>
<path opacity="0.1" d="M368.065 179.737H350.158V195.335H368.065V179.737Z" fill="#00CFFC"/>
<path opacity="0.1" d="M368.065 220.25H350.158V243.47H368.065V220.25Z" fill="#00CFFC"/>
<path opacity="0.1" d="M368.065 268.38H350.158V291.6H368.065V268.38Z" fill="#00CFFC"/>
<path opacity="0.1" d="M368.06 334.33C368.24 334.33 368.415 334.33 368.591 334.361H368.06V339.756H350.158V316.509H368.06V334.33Z" fill="#00CFFC"/>
<path opacity="0.1" d="M368.06 364.628V382.565C362.075 382.059 356.108 381.37 350.158 380.498V364.628H368.06Z" fill="#00CFFC"/>
<path opacity="0.1" d="M278.908 251.554H202.165V253.26H278.908V251.554Z" fill="#00CFFC"/>
<path opacity="0.1" d="M278.908 255.529H202.165V262.066H278.908V255.529Z" fill="#00CFFC"/>
<path opacity="0.1" d="M278.908 283.495H202.165V294.007H278.908V283.495Z" fill="#00CFFC"/>
<path opacity="0.1" d="M278.903 315.436V325.948H218.877C216.27 323.957 213.696 321.913 211.153 319.815C209.395 318.364 207.652 316.876 205.878 315.436H278.903Z" fill="#00CFFC"/>
<path opacity="0.1" d="M278.903 347.372V357.874H272.565C265.444 354.66 258.462 351.154 251.62 347.356L278.903 347.372Z" fill="#00CFFC"/>
<path opacity="0.1" d="M427.23 186.864H412.123V201.979H427.23V186.864Z" fill="#00CFFC"/>
<path opacity="0.1" d="M100.126 116.439H85.019V131.554H100.126V116.439Z" fill="#00CFFC"/>
<path opacity="0.1" d="M100.126 151.548H85.019V166.663H100.126V151.548Z" fill="#00CFFC"/>
<path opacity="0.1" d="M100.126 186.656H85.019V201.771H100.126V186.656Z" fill="#00CFFC"/>
<path opacity="0.1" d="M100.126 221.76H85.019V236.875H100.126V221.76Z" fill="#00CFFC"/>
<path opacity="0.1" d="M100.126 256.868H85.019V271.983H100.126V256.868Z" fill="#00CFFC"/>
<path opacity="0.1" d="M100.126 291.977H85.019V307.092H100.126V291.977Z" fill="#00CFFC"/>
<path opacity="0.1" d="M484.903 186.864H469.795V201.979H484.903V186.864Z" fill="#00CFFC"/>
<path opacity="0.1" d="M427.23 224.146H412.123V239.261H427.23V224.146Z" fill="#00CFFC"/>
<path opacity="0.1" d="M484.903 224.146H469.795V239.261H484.903V224.146Z" fill="#00CFFC"/>
<path opacity="0.1" d="M427.23 261.423H412.123V276.538H427.23V261.423Z" fill="#00CFFC"/>
<path opacity="0.1" d="M484.903 261.423H469.795V276.538H484.903V261.423Z" fill="#00CFFC"/>
<path opacity="0.1" d="M427.23 298.705H412.123V313.82H427.23V298.705Z" fill="#00CFFC"/>
<path opacity="0.1" d="M484.903 298.705H469.795V313.82H484.903V298.705Z" fill="#00CFFC"/>
<path opacity="0.1" d="M427.23 335.988H412.123V351.103H427.23V335.988Z" fill="#00CFFC"/>
<path opacity="0.1" d="M484.903 335.988H469.795V351.103H484.903V335.988Z" fill="#00CFFC"/>
<path opacity="0.1" d="M412.123 383.012V373.265H427.225V381.625L412.123 383.012Z" fill="#00CFFC"/>
<path opacity="0.1" d="M9.56165 158.574V167.221H61.2636V158.574H9.56165ZM14.7143 166.678H10.4966V159.105H14.7462L14.7143 166.678ZM19.8617 166.678H15.612V159.105H19.8617V166.678ZM24.9984 166.678H20.7488V159.105H24.9984V166.678ZM30.1457 166.678H25.9014V159.105H30.1511L30.1457 166.678ZM35.2878 166.678H31.0382V159.105H35.2878V166.678ZM40.4351 166.678H36.1855V159.105H40.4351V166.678ZM45.5825 166.678H41.3329V159.105H45.5825V166.678ZM50.7245 166.678H46.4749V159.105H50.7245V166.678ZM55.8666 166.678H51.617V159.105H55.8666V166.678ZM61.0086 166.678H56.759V159.105H61.0086V166.678Z" fill="#00CFFC"/>
<path opacity="0.1" d="M9.56165 183.733V192.38H61.2636V183.733H9.56165ZM14.7143 191.833H10.4966V184.281H14.7462L14.7143 191.833ZM19.8617 191.833H15.612V184.281H19.8617V191.833ZM24.9984 191.833H20.7488V184.281H24.9984V191.833ZM30.1457 191.833H25.9014V184.281H30.1511L30.1457 191.833ZM35.2878 191.833H31.0382V184.281H35.2878V191.833ZM40.4351 191.833H36.1855V184.281H40.4351V191.833ZM45.5825 191.833H41.3329V184.281H45.5825V191.833ZM50.7245 191.833H46.4749V184.281H50.7245V191.833ZM55.8666 191.833H51.617V184.281H55.8666V191.833ZM61.0086 191.833H56.759V184.281H61.0086V191.833Z" fill="#00CFFC"/>
<path opacity="0.1" d="M9.56165 208.904V217.566H61.2636V208.904H9.56165ZM14.7143 217.003H10.4966V209.446H14.7462L14.7143 217.003ZM19.8617 217.003H15.612V209.446H19.8617V217.003ZM24.9984 217.003H20.7488V209.446H24.9984V217.003ZM30.1457 217.003H25.9014V209.446H30.1511L30.1457 217.003ZM35.2878 217.003H31.0382V209.446H35.2878V217.003ZM40.4351 217.003H36.1855V209.446H40.4351V217.003ZM45.5825 217.003H41.3329V209.446H45.5825V217.003ZM50.7245 217.003H46.4749V209.446H50.7245V217.003ZM55.8666 217.003H51.617V209.446H55.8666V217.003ZM61.0086 217.003H56.759V209.446H61.0086V217.003Z" fill="#00CFFC"/>
<path opacity="0.1" d="M9.56165 234.074V242.71H61.2636V234.074H9.56165ZM14.7143 242.173H10.4966V234.611H14.7462L14.7143 242.173ZM19.8617 242.173H15.612V234.611H19.8617V242.173ZM24.9984 242.173H20.7488V234.611H24.9984V242.173ZM30.1457 242.173H25.9014V234.611H30.1511L30.1457 242.173ZM35.2878 242.173H31.0382V234.611H35.2878V242.173ZM40.4351 242.173H36.1855V234.611H40.4351V242.173ZM45.5825 242.173H41.3329V234.611H45.5825V242.173ZM50.7245 242.173H46.4749V234.611H50.7245V242.173ZM55.8666 242.173H51.617V234.611H55.8666V242.173ZM61.0086 242.173H56.759V234.611H61.0086V242.173Z" fill="#00CFFC"/>
<path opacity="0.1" d="M9.78476 259.239C9.99193 260.052 10.2257 260.865 10.47 261.667V259.781H14.7196V267.338H12.4461C12.5151 267.514 12.5842 267.705 12.6532 267.87H61.2636V259.239H9.78476ZM19.8776 267.338H15.628V259.781H19.8776V267.338ZM25.0143 267.338H20.7647V259.781H25.0143V267.338ZM30.1617 267.338H25.9014V259.781H30.1511L30.1617 267.338ZM35.3037 267.338H31.0541V259.781H35.3037V267.338ZM40.4511 267.338H36.2015V259.781H40.4511V267.338ZM45.5984 267.338H41.3488V259.781H45.5984V267.338ZM50.7405 267.338H46.4909V259.781H50.7405V267.338ZM55.8825 267.338H51.6329V259.781H55.8825V267.338ZM61.0246 267.338H56.7749V259.781H61.0246V267.338Z" fill="#00CFFC"/>
<path opacity="0.1" d="M21.7899 284.409C21.9227 284.579 22.0502 284.77 22.1883 284.94H24.9984V288.57C25.3012 288.932 25.5986 289.293 25.9067 289.633V284.919H30.1564V292.503H28.4353C28.6052 292.679 28.7699 292.865 28.9665 293.035H61.2795V284.409H21.7899ZM35.2878 292.503H31.0382V284.951H35.2878V292.503ZM40.4351 292.503H36.1855V284.951H40.4351V292.503ZM45.5825 292.503H41.3329V284.951H45.5825V292.503ZM50.7245 292.503H46.4749V284.951H50.7245V292.503ZM55.8666 292.503H51.6169V284.951H55.8666V292.503ZM61.0086 292.503H56.759V284.951H61.0086V292.503Z" fill="#00CFFC"/>
<path opacity="0.1" d="M50.1508 309.574C50.6342 309.85 51.1282 310.105 51.6276 310.382V310.116H55.8772V312.508L56.7802 312.927V310.116H61.0299V314.713C61.1113 314.754 61.1968 314.786 61.2848 314.809V309.574H50.1508Z" fill="#00CFFC"/>
<path opacity="0.1" d="M400.782 177.467H400.814H400.782ZM368.06 334.324H368.591H368.06ZM333.919 254.514C334.02 254.854 334.105 255.194 334.201 255.529C334.116 255.194 334.025 254.854 333.919 254.514ZM400.782 177.451H400.814H400.782ZM79.9353 97.8695V100.139H103.664V97.8695H79.9353ZM368.06 334.324H368.591H368.06ZM333.919 254.514C334.02 254.854 334.105 255.194 334.201 255.529C334.116 255.194 334.025 254.854 333.919 254.514ZM400.782 177.451H400.814H400.782ZM368.06 334.308H368.591H368.06ZM333.919 254.514C334.02 254.854 334.105 255.194 334.201 255.529C334.116 255.194 334.025 254.854 333.919 254.514Z" fill="#00CFFC"/>
<path d="M245.203 201.782C245.203 201.782 243.11 201.49 243.11 198.439C243.11 195.388 241.612 189.691 241.612 189.691C241.612 189.664 240.316 179.769 238.526 178.195C236.736 176.622 234.436 167.385 234.436 167.385C234.436 167.385 234.043 162.374 233.24 161.295C232.438 160.216 231.355 157.574 229.756 153.806C228.157 150.038 221.49 147.429 221.49 147.429C221.49 147.429 209.437 140.435 206.022 138.155C205.711 137.967 205.421 137.748 205.156 137.501C204.561 136.72 201.969 136.704 201.969 136.704C201.698 134.992 201.437 133.026 201.352 131.246C201.352 131.054 201.352 130.863 201.326 130.672C205.134 128.419 208.003 124.868 209.405 120.669C209.469 120.467 209.522 120.255 209.581 120.053C209.809 119.978 210.019 119.856 210.197 119.695C210.376 119.534 210.518 119.337 210.616 119.118C210.925 118.432 210.93 117.629 211.312 116.992C211.759 116.237 212.608 115.833 213.278 115.264C214.967 113.829 215.403 111.411 215.323 109.211C215.27 107.431 214.983 105.634 215.095 103.864L215.126 103.418C215.158 103.152 215.195 102.887 215.243 102.631C215.504 101.313 216.072 100.07 216.391 98.7624C216.709 97.455 216.741 95.9828 215.998 94.8561C214.909 93.2033 212.64 92.8737 210.648 92.7037C208.391 92.5123 206.372 92.7621 204.927 90.8861C204.251 89.9055 203.49 88.9861 202.654 88.1384C202.356 87.862 199.467 86.0976 199.467 85.9806C196.646 84.6737 193.449 84.4284 190.463 85.2897C188.965 85.7255 187.552 86.4377 186.032 86.7938C182.755 87.5697 178.983 86.73 176.2 88.6061C174.649 89.669 173.719 91.3591 172.848 93.0066C172.14 94.3636 171.421 95.7189 170.691 97.0723C169.517 99.2992 168.322 101.563 167.828 104.029C167.724 104.566 167.66 105.109 167.637 105.656V105.682C167.637 105.879 167.637 106.075 167.637 106.272V106.522C167.637 106.708 167.637 106.889 167.669 107.053C167.701 107.218 167.695 107.271 167.711 107.383C167.727 107.494 167.754 107.744 167.786 107.914C167.817 108.084 167.881 108.382 167.945 108.616C167.972 108.717 168.009 108.812 168.041 108.908C168.094 109.089 168.157 109.264 168.227 109.44C168.264 109.53 168.301 109.626 168.343 109.716C168.423 109.902 168.519 110.083 168.614 110.247C168.657 110.322 168.689 110.391 168.731 110.46C168.879 110.707 169.043 110.945 169.22 111.172C170.357 112.591 172.03 113.495 173.268 114.823C173.268 114.876 173.268 114.93 173.268 114.977C173.268 115.126 173.268 115.27 173.268 115.419C173.333 118.382 174.122 121.284 175.564 123.873C177.006 126.462 179.059 128.659 181.544 130.273C181.544 130.475 181.57 130.682 181.581 130.884C181.685 132.462 181.665 134.045 181.523 135.62C181.306 135.365 181.035 135.162 180.73 135.026C180.425 134.889 180.093 134.824 179.759 134.833C179.531 134.822 179.302 134.842 179.079 134.891L179.031 134.854V134.902C177.863 135.189 176.423 136.406 175.047 139.866C175.047 139.866 170.861 144.585 167.674 144.389C164.487 144.192 156.418 149.3 156.418 149.3C156.418 149.3 148.545 154.412 146.856 159.621C145.912 162.574 144.78 165.464 143.467 168.273L133.736 188.336L131.94 204.253C131.94 204.253 132.933 211.332 132.737 212.411C132.54 213.49 136.822 223.221 136.822 223.221C136.822 223.221 150.968 248.089 156.747 249.364L157.162 249.072C157.409 249.201 157.671 249.299 157.942 249.364L159.132 248.524C159.204 249.46 159.174 250.401 159.042 251.33C158.245 253.786 159.34 269.81 160.731 272.951C162.123 276.091 161.629 317.275 161.629 317.275L161.432 320.91C161.432 320.91 161.432 321.027 161.48 321.229L161.432 322.09L161.576 322.164C161.725 323.317 161.676 324.487 161.432 325.624C160.933 327.219 160.731 331.725 160.731 331.725C160.731 331.725 156.753 357.172 158.638 362.285C160.524 367.397 162.128 372.999 162.128 372.999C162.128 372.999 164.12 379.377 162.224 380.466C160.328 381.556 154.936 383.384 156.046 386.041C157.055 388.497 160.885 395.076 161.454 396.038L161.406 396.543L160.625 405.009C160.751 406.127 161.054 407.218 161.523 408.241C162.378 410.085 164.041 411.998 167.201 411.791C167.732 411.754 168.349 411.69 168.944 411.61C174.728 410.834 181.852 408.251 181.852 408.251C181.482 408.016 181.143 407.736 180.843 407.417C180.558 407.141 180.333 406.811 180.18 406.445C180.028 406.08 179.951 405.687 179.955 405.291C180.04 403.75 177.156 396.405 176.439 394.598C176.327 394.337 176.269 394.189 176.269 394.189C176.269 394.189 182.845 387.311 181.751 381.216C181.751 381.216 174.473 376.964 176.869 374.631C179.265 372.298 183.546 365.596 183.546 365.596C183.546 365.596 183.743 340.537 183.546 336.796C183.341 334.199 183.465 331.586 183.913 329.02C183.993 328.632 184.088 328.255 184.189 327.883C187.502 328.378 190.847 328.632 194.197 328.643C195.419 328.643 196.662 328.643 197.915 328.568C197.915 328.923 197.931 329.305 197.963 329.716C198.239 335.924 198.755 346.808 199.174 350.853C199.769 356.651 203.057 372.276 203.057 372.276C203.057 372.276 196.784 376.305 204.152 386.233C204.152 386.233 204.152 389.831 203.663 390.351C203.141 392.054 202.721 393.786 202.404 395.539C202.096 397.409 201.969 399.301 202.468 400.285C203.663 402.634 210.834 402.442 210.834 402.442L211.01 402.41C212.363 402.27 213.732 402.401 215.035 402.794C216.338 403.187 217.55 403.835 218.6 404.701C221.326 406.891 231.668 405.929 237.267 405.232C239.461 404.956 240.927 404.701 240.927 404.701C240.998 404.453 241.023 404.193 241.001 403.936C240.943 402.559 239.865 399.54 232.555 396.846C232.555 396.846 225.681 392.222 225.777 388.194H225.634H224.837C225.416 388.162 225.788 388.194 225.788 388.194C225.788 388.194 223.094 378.362 224.194 377.564C225.294 376.767 222 365.872 222 365.872C222 365.872 220.114 347.59 220.013 346.309C220.018 345.21 220.184 344.117 220.507 343.067L220.013 333.043C220.013 333.043 219.918 329.711 220.013 328.627C219.997 327.686 219.921 326.747 219.785 325.815C219.737 325.443 219.689 325.055 219.636 324.673C222.213 324.019 223.886 323.413 223.886 323.413L223.588 288.522C225.777 284.271 226.181 274.943 226.17 268.327C226.17 264.075 225.979 260.929 225.979 260.929L228.97 256.045C228.97 256.045 229.66 250.198 228.566 248.918C228.082 248.338 228.3 247.738 228.699 247.243C228.906 247.079 229.124 246.93 229.352 246.797C229.352 246.797 229.32 246.749 229.283 246.68C229.492 246.506 229.714 246.347 229.947 246.207C229.947 246.207 228.885 244.56 229.835 243.863C230.728 244.469 231.525 244.926 232.13 245.298C232.088 245.686 232.045 245.909 232.045 245.909L232.3 245.378C232.884 245.708 233.24 245.909 233.24 245.909C233.24 245.909 237.926 236.572 237.825 235.195C237.724 233.819 241.012 228.02 241.012 228.02C241.012 228.02 241.41 224.975 243.206 223.7C245.001 222.424 244.598 213.182 244.598 213.182C244.598 213.182 245.097 208.367 246.292 206.4C247.487 204.434 245.203 201.782 245.203 201.782ZM155.557 197.684L155.648 199.911C155.116 199.055 154.734 198.439 154.734 198.439L155.557 197.684Z" fill="url(#paint0_linear)"/>
<path d="M233.495 241.876L232.348 246.765C232.348 246.765 223.158 242.072 221.501 236.109C219.843 230.146 224.274 227.882 224.274 227.882L232.837 231.512L233.495 241.876Z" fill="white"/>
<path opacity="0.1" d="M233.495 241.876L232.348 246.765C232.348 246.765 223.158 242.072 221.501 236.109C219.843 230.146 224.274 227.882 224.274 227.882L232.837 231.512L233.495 241.876Z" fill="black"/>
<path d="M181.921 408.283C181.921 408.283 173.422 411.408 167.578 411.801C164.476 412.009 162.845 410.106 162.006 408.273C161.548 407.253 161.252 406.168 161.13 405.057L161.889 396.633L162.293 392.148L174.707 388.922L176.465 394.3L176.63 394.709C177.337 396.506 180.168 403.813 180.083 405.339C180.079 405.729 180.155 406.117 180.305 406.477C180.454 406.838 180.675 407.165 180.954 407.438C181.239 407.76 181.564 408.044 181.921 408.283Z" fill="white"/>
<path d="M239.976 403.999C239.997 404.255 239.972 404.513 239.902 404.759C239.902 404.759 221.724 407.794 218.006 404.759C216.957 403.873 215.735 403.215 214.418 402.829C213.1 402.443 211.717 402.337 210.356 402.517C210.356 402.517 203.323 402.708 202.149 400.391C201.66 399.418 201.788 397.532 202.091 395.671C202.4 393.928 202.811 392.205 203.323 390.511L203.605 390.288L205.278 388.943L224.869 388.364H225.017C224.922 392.371 231.668 396.968 231.668 396.968C238.834 399.625 239.891 402.628 239.976 403.999Z" fill="white"/>
<path opacity="0.1" d="M239.976 403.999C239.995 404.256 239.968 404.513 239.896 404.759C239.896 404.759 221.724 407.794 218.006 404.759C216.958 403.874 215.737 403.217 214.42 402.83C213.104 402.444 211.721 402.337 210.361 402.517C210.361 402.517 203.323 402.708 202.154 400.391C201.666 399.413 201.788 397.532 202.091 395.671C204.8 395.942 209.076 396.617 210.755 398.228C213.294 400.678 217.596 403.123 220.237 403.314C222.303 403.447 234.664 403.84 239.976 403.999Z" fill="black"/>
<path opacity="0.1" d="M181.921 408.283C181.921 408.283 173.422 411.408 167.578 411.801C164.476 412.009 162.845 410.106 162.011 408.267C164.173 408.995 167.175 409.761 168.752 409.059C170.622 408.23 177.252 407.693 180.97 407.465C181.253 407.775 181.572 408.049 181.921 408.283Z" fill="black"/>
<path d="M194.532 156.448C187.52 153.721 178.5 144.713 180.752 140.504C181.252 139.442 181.55 138.295 181.629 137.124C181.774 135.533 181.795 133.934 181.692 132.34C181.535 129.73 181.221 127.132 180.752 124.56C180.752 124.56 202.643 125.054 201.368 128.28C200.996 129.226 200.938 130.868 201.039 132.707C201.14 134.546 201.405 136.624 201.682 138.383C202.064 140.796 202.447 142.635 202.447 142.635C202.447 142.635 201.108 144.511 200.322 144.612C199.536 144.713 204.593 160.333 194.532 156.448Z" fill="#CF6F80"/>
<path opacity="0.1" d="M176.614 394.709L176.45 394.89C169.905 386.971 161.99 396.841 161.99 396.841L161.873 396.633L162.277 392.148L174.691 388.922L176.45 394.3L176.614 394.709Z" fill="black"/>
<path opacity="0.1" d="M225.023 388.922C225.023 388.922 220.242 388.821 217.692 391.074C215.142 393.328 202.818 391.563 203.35 391.074C203.507 390.832 203.602 390.554 203.626 390.266L205.299 388.922L224.89 388.342C224.964 388.699 225.023 388.922 225.023 388.922Z" fill="black"/>
<path d="M184.758 326.735C184.401 327.616 184.131 328.529 183.95 329.461C183.507 332.015 183.384 334.615 183.584 337.199C183.78 340.92 183.584 365.851 183.584 365.851C183.584 365.851 179.382 372.499 177.039 374.843C174.697 377.187 181.82 381.396 181.82 381.396C182.882 387.455 176.444 394.3 176.444 394.3C169.9 386.381 161.985 396.256 161.985 396.256C161.985 396.256 157.682 388.815 156.609 386.158C155.536 383.501 160.811 381.662 162.665 380.583C164.519 379.504 162.575 373.143 162.575 373.143C162.575 373.143 161.007 367.567 159.148 362.481C157.289 357.395 161.199 332.076 161.199 332.076C161.199 332.076 161.401 327.58 161.884 326.012C162.128 324.881 162.176 323.716 162.027 322.568C161.996 322.18 161.958 321.856 161.932 321.638C161.905 321.42 161.884 321.319 161.884 321.319L161.958 321.192L164.614 316.238C164.614 316.238 186.032 323.615 184.758 326.735Z" fill="#00CFFC"/>
<path d="M225.023 388.337C225.023 388.337 220.242 388.236 217.692 390.463C215.142 392.69 202.818 390.952 203.35 390.463C203.881 389.974 203.838 386.355 203.838 386.355C196.609 376.48 202.776 372.473 202.776 372.473C202.776 372.473 199.546 356.928 198.962 351.161C198.553 347.133 198.048 336.307 197.777 330.126C197.66 327.468 197.591 325.64 197.591 325.64L203.498 324.45L204.258 324.296L218.505 321.436C218.505 321.436 218.898 324.094 219.164 326.267C219.296 327.195 219.37 328.131 219.387 329.068C219.291 330.131 219.387 333.458 219.387 333.458L219.87 343.434C219.554 344.48 219.391 345.567 219.387 346.66C219.482 347.93 221.336 366.117 221.336 366.117C221.336 366.117 224.561 376.969 223.461 377.75C222.361 378.532 225.023 388.337 225.023 388.337Z" fill="#00CFFC"/>
<path opacity="0.1" d="M201.368 128.28C200.996 129.226 200.938 130.868 201.039 132.707C198.107 134.474 194.736 135.377 191.314 135.313C187.892 135.249 184.557 134.221 181.693 132.346C181.535 129.734 181.221 127.134 180.752 124.56C180.752 124.56 202.643 125.043 201.368 128.28Z" fill="black"/>
<path d="M209.83 116.535C209.835 118.45 209.533 120.353 208.938 122.174C207.607 126.252 204.878 129.728 201.233 131.988C197.588 134.248 193.262 135.146 189.02 134.523C184.777 133.9 180.891 131.797 178.048 128.585C175.206 125.373 173.59 121.259 173.485 116.97C173.485 116.822 173.485 116.683 173.485 116.535C173.444 114.121 173.884 111.722 174.779 109.48C175.674 107.238 177.006 105.196 178.698 103.474C180.389 101.752 182.407 100.385 184.632 99.4513C186.858 98.5178 189.247 98.037 191.661 98.037C194.074 98.037 196.463 98.5178 198.689 99.4513C200.914 100.385 202.932 101.752 204.624 103.474C206.315 105.196 207.648 107.238 208.542 109.48C209.437 111.722 209.877 114.121 209.836 116.535H209.83Z" fill="#CF6F80"/>
<path opacity="0.1" d="M194.532 156.448C187.52 153.721 178.5 144.713 180.752 140.504C181.252 139.442 181.55 138.295 181.629 137.124L191.228 145.016L197.166 149.889L201.682 138.389C202.064 140.801 202.447 142.64 202.447 142.64C202.447 142.64 201.108 144.516 200.322 144.617C199.536 144.718 204.593 160.333 194.532 156.448Z" fill="black"/>
<path d="M219.355 191.328L211.339 326.055L200.885 326.74L173.815 248.62L178.256 155.874L179.191 136.279L191.228 146.169L197.172 151.043L201.82 139.207L210.462 146.743L219.355 191.328Z" fill="#00CFFC"/>
<path opacity="0.1" d="M184.758 326.735C184.401 327.616 184.131 328.529 183.95 329.461C176.343 328.286 168.955 325.977 162.033 322.611L161.889 322.536L161.937 321.681L161.964 321.234L164.62 316.281C164.62 316.281 186.032 323.615 184.758 326.735Z" fill="black"/>
<path opacity="0.1" d="M203.621 329.483C201.676 329.813 199.715 330.037 197.745 330.152C197.629 327.495 197.56 325.667 197.56 325.667L203.466 324.476L203.621 329.483Z" fill="black"/>
<path opacity="0.1" d="M219.132 326.294C215.355 327.277 209.522 328.382 204.3 327.692L204.226 324.322L218.473 321.463C218.473 321.463 218.866 324.094 219.132 326.294Z" fill="black"/>
<path opacity="0.1" d="M204.205 328.308C182.426 332.028 162.479 321.362 162.479 321.362L162.67 317.748C162.67 317.748 163.164 276.777 161.794 273.636C160.423 270.495 159.355 254.567 160.131 252.122C160.907 249.678 157.3 213.017 157.3 213.017L156.715 198.136L135.329 189.468L144.891 169.527C146.182 166.731 147.293 163.856 148.216 160.917C149.879 155.741 157.597 150.655 157.597 150.655C157.597 150.655 165.512 145.574 168.641 145.765C171.77 145.957 175.871 141.269 175.871 141.269C178.898 133.547 181.639 137.044 181.639 137.044C181.639 137.411 181.639 137.044 181.491 138.187C180.428 146.663 198.67 173.449 198.93 173.922L200.667 216.259L202.425 269.836L204.205 328.308Z" fill="black"/>
<path d="M203.621 328.308C181.841 332.028 161.889 321.362 161.889 321.362L162.086 317.748C162.086 317.748 162.58 276.777 161.204 273.636C159.828 270.495 158.766 254.567 159.547 252.122C160.328 249.678 156.715 213.017 156.715 213.017L156.126 198.136L134.729 189.436L144.291 169.495C145.579 166.698 146.69 163.823 147.616 160.886C149.273 155.709 156.997 150.623 156.997 150.623C156.997 150.623 164.912 145.542 168.035 145.733C171.159 145.925 175.265 141.237 175.265 141.237C178.298 133.515 181.639 137.012 181.639 137.012C181.639 137.379 181.321 137.544 181.491 138.155C183.828 146.376 198.085 173.418 198.346 173.891L200.104 216.227L201.862 269.804L203.621 328.308Z" fill="white"/>
<path opacity="0.1" d="M197.751 175.097C195.408 174.119 182.999 159.945 182.999 159.945V156.719C182.548 155.656 179.865 156.304 177.687 157.048L178.622 137.453L179.685 138.335C182.011 146.552 197.48 174.624 197.751 175.097Z" fill="black"/>
<path d="M198.34 173.922C195.992 172.944 183.584 158.77 183.584 158.77V155.544C183.132 154.481 180.449 155.13 178.272 155.874L179.212 136.279L180.274 137.161C182.606 145.377 198.08 173.455 198.34 173.922Z" fill="white"/>
<path opacity="0.1" d="M162.479 244.613C162.771 244.613 177.623 243.05 177.623 243.05C177.623 243.05 186.617 260.743 186.027 265.048C185.437 269.353 184.37 273.163 180.752 272.488C177.135 271.813 161.284 273.02 161.284 273.02L162.479 244.613Z" fill="black"/>
<path d="M161.889 243.438C162.181 243.438 177.034 241.876 177.034 241.876C177.034 241.876 186.022 259.574 185.437 263.873C184.853 268.173 183.775 271.989 180.163 271.314C176.55 270.639 160.694 271.845 160.694 271.845L161.889 243.438Z" fill="white"/>
<path d="M173.082 235.131C173.082 235.131 186.712 242.46 187.005 244.698C187.297 246.935 180.067 243.72 178.505 243.332C177.477 243.084 176.431 242.921 175.376 242.843L164.96 243.125L173.082 235.131Z" fill="#CF6F80"/>
<path opacity="0.1" d="M193.947 176.011C194.739 176.011 195.382 175.369 195.382 174.576C195.382 173.784 194.739 173.141 193.947 173.141C193.155 173.141 192.513 173.784 192.513 174.576C192.513 175.369 193.155 176.011 193.947 176.011Z" fill="black"/>
<path d="M193.947 175.426C194.739 175.426 195.382 174.784 195.382 173.991C195.382 173.199 194.739 172.557 193.947 172.557C193.155 172.557 192.513 173.199 192.513 173.991C192.513 174.784 193.155 175.426 193.947 175.426Z" fill="#3F3D56"/>
<path opacity="0.1" d="M196.587 238.129C197.38 238.129 198.022 237.486 198.022 236.694C198.022 235.901 197.38 235.259 196.587 235.259C195.795 235.259 195.153 235.901 195.153 236.694C195.153 237.486 195.795 238.129 196.587 238.129Z" fill="black"/>
<path d="M196.587 237.539C197.38 237.539 198.022 236.896 198.022 236.104C198.022 235.311 197.38 234.669 196.587 234.669C195.795 234.669 195.153 235.311 195.153 236.104C195.153 236.896 195.795 237.539 196.587 237.539Z" fill="#3F3D56"/>
<path opacity="0.1" d="M195.376 207.07C196.168 207.07 196.811 206.427 196.811 205.635C196.811 204.842 196.168 204.2 195.376 204.2C194.584 204.2 193.942 204.842 193.942 205.635C193.942 206.427 194.584 207.07 195.376 207.07Z" fill="black"/>
<path d="M195.376 206.485C196.168 206.485 196.811 205.843 196.811 205.05C196.811 204.258 196.168 203.615 195.376 203.615C194.584 203.615 193.942 204.258 193.942 205.05C193.942 205.843 194.584 206.485 195.376 206.485Z" fill="#3F3D56"/>
<path d="M228.438 242.545C228.438 242.545 229.416 244.012 228.438 244.698C227.461 245.383 228.534 247.042 228.534 247.042C228.534 247.042 226.096 248.471 227.169 249.757C228.242 251.044 227.562 256.852 227.562 256.852L224.63 261.71C224.63 261.71 224.805 264.84 224.816 269.071C224.816 275.672 224.428 284.951 222.282 289.182L222.579 323.892C222.579 323.892 212.311 327.644 203.716 326.501L202.441 270.803C202.441 270.803 204.3 239.218 204.986 233.16C205.387 230.014 205.55 226.843 205.474 223.673C205.474 223.673 205.182 214.192 204.2 209.791C204.2 209.791 203.137 190.727 203.031 185.45C202.983 182.925 203.116 175.559 203.265 168.555C203.429 160.896 203.615 153.674 203.615 153.674L201.676 138.325C201.676 138.325 203.615 138.128 204.2 138.909C204.461 139.154 204.746 139.373 205.049 139.563C208.396 141.827 220.221 148.789 220.221 148.789C220.221 148.789 226.765 151.394 228.332 155.124C229.899 158.855 230.988 161.502 231.748 162.565C232.507 163.628 232.922 168.624 232.922 168.624C232.922 168.624 235.174 177.818 236.932 179.375C238.691 180.932 239.976 190.839 239.976 190.839L224.438 203.063C224.438 203.063 223.073 223.397 222.781 224.183C222.489 224.97 228.438 242.545 228.438 242.545Z" fill="white"/>
<path d="M229.028 242.545C229.028 242.545 230 244.012 229.028 244.698C228.056 245.383 229.118 247.042 229.118 247.042C229.118 247.042 226.696 248.487 227.758 249.773C228.821 251.059 228.151 256.868 228.151 256.868L225.219 261.726C225.219 261.726 225.395 264.856 225.41 269.087C225.41 275.688 225.023 284.967 222.877 289.197L223.169 323.908C223.169 323.908 212.885 327.66 204.3 326.517L203.031 270.819C203.031 270.819 204.89 239.234 205.575 233.176C205.977 230.03 206.138 226.859 206.059 223.689C206.059 223.689 205.767 214.208 204.789 209.807C204.789 209.807 203.727 190.743 203.615 185.466C203.567 182.941 203.706 175.575 203.849 168.57C204.014 160.912 204.2 153.689 204.2 153.689L201.639 138.133C201.639 138.133 204.2 138.133 204.789 138.925C205.048 139.173 205.333 139.392 205.639 139.579C208.986 141.843 220.816 148.805 220.816 148.805C220.816 148.805 227.355 151.409 228.922 155.14C230.489 158.871 231.578 161.518 232.343 162.581C233.108 163.644 233.511 168.64 233.511 168.64C233.511 168.64 235.764 177.834 237.522 179.391C239.28 180.948 240.55 190.834 240.55 190.834L225.012 203.057C225.012 203.057 223.647 223.391 223.349 224.178C223.052 224.964 229.028 242.545 229.028 242.545Z" fill="white"/>
<path opacity="0.1" d="M210.42 158.202L211.822 162.294L204.439 169.734C204.603 162.081 204.789 154.853 204.789 154.853L202.229 139.297C202.229 139.297 204.789 139.297 205.379 140.089C205.637 140.336 205.922 140.554 206.229 140.738L212.508 158.861L210.42 158.202Z" fill="black"/>
<path d="M209.83 157.027L211.238 161.119L203.854 168.56C204.019 160.901 204.205 153.679 204.205 153.679L201.639 138.123C201.639 138.123 204.205 138.123 204.789 138.915C205.05 139.161 205.334 139.38 205.639 139.568L211.923 157.686L209.83 157.027Z" fill="white"/>
<path opacity="0.1" d="M209.83 116.535C209.835 118.45 209.533 120.353 208.938 122.174C208.838 122.189 208.735 122.185 208.637 122.16C208.538 122.135 208.445 122.091 208.364 122.03C208.226 117.247 205.873 112.756 202.978 108.935C202.165 107.781 201.18 106.759 200.056 105.905C198.92 105.052 197.508 104.652 196.093 104.784C194.5 105.002 193.092 106.086 191.483 106.224C189.358 106.4 187.456 104.927 185.347 104.853C184.49 104.861 183.644 105.052 182.866 105.413C182.089 105.774 181.397 106.297 180.837 106.947C179.729 108.258 178.906 109.786 178.42 111.433C177.585 113.93 177.13 116.538 177.071 119.171C177.044 120.659 176.901 122.524 175.52 123.066C175.624 121.972 175.5 120.868 175.155 119.824C174.81 118.78 174.253 117.819 173.517 117.002L173.485 116.97C173.485 116.822 173.485 116.683 173.485 116.535C173.444 114.121 173.884 111.722 174.779 109.48C175.674 107.238 177.006 105.196 178.698 103.474C180.389 101.752 182.407 100.385 184.632 99.4513C186.858 98.5178 189.247 98.037 191.661 98.037C194.074 98.037 196.463 98.5178 198.689 99.4513C200.914 100.385 202.932 101.752 204.624 103.474C206.315 105.196 207.648 107.238 208.542 109.48C209.437 111.722 209.877 114.121 209.836 116.535H209.83Z" fill="black"/>
<path d="M199.185 87.6601C196.425 86.361 193.285 86.1153 190.356 86.9692C188.885 87.405 187.499 88.1118 186.006 88.4679C182.819 89.2385 179.1 88.4041 176.365 90.2696C174.845 91.3325 173.932 93.0119 173.082 94.6435L170.957 98.6933C169.799 100.91 168.63 103.163 168.147 105.602C167.663 108.042 167.956 110.774 169.501 112.735C170.628 114.164 172.29 115.062 173.512 116.407C174.244 117.225 174.799 118.185 175.143 119.228C175.487 120.27 175.611 121.373 175.509 122.466C176.896 121.934 177.029 120.064 177.06 118.575C177.12 115.943 177.574 113.334 178.41 110.837C178.894 109.19 179.718 107.662 180.827 106.352C181.387 105.702 182.079 105.18 182.856 104.819C183.634 104.458 184.479 104.267 185.337 104.258C187.461 104.332 189.368 105.799 191.472 105.624C193.066 105.491 194.479 104.401 196.083 104.189C197.497 104.055 198.911 104.455 200.046 105.31C201.169 106.163 202.152 107.185 202.962 108.339C205.862 112.161 208.215 116.641 208.354 121.435C208.954 121.876 209.82 121.302 210.117 120.622C210.415 119.941 210.425 119.144 210.802 118.496C211.238 117.746 212.072 117.348 212.725 116.784C214.383 115.355 214.797 112.947 214.733 110.763C214.67 108.579 214.245 106.362 214.659 104.215C214.909 102.897 215.472 101.664 215.78 100.362C216.088 99.06 216.125 97.5985 215.397 96.4771C214.335 94.8296 212.099 94.5054 210.149 94.3512C207.934 94.1599 205.953 94.4044 204.54 92.5389C203.876 91.5655 203.13 90.6515 202.308 89.8072C202.027 89.5308 199.185 87.777 199.185 87.6601Z" fill="#512E4E"/>
<path opacity="0.1" d="M141.449 199.736L135.898 189.468L134.139 205.311C134.139 205.311 135.117 212.347 134.92 213.426C134.724 214.505 138.925 224.178 138.925 224.178C138.925 224.178 152.806 248.912 158.474 250.188L177.623 236.497L172.545 230.045C172.545 230.045 170.787 229.36 170.346 230.045C170.346 230.045 160.917 213.814 159.94 212.64C158.962 211.465 159.154 209.121 159.154 209.121C159.154 209.121 157.687 207.559 158.176 206.092C158.665 204.625 155.345 199.539 155.345 199.539L158.373 196.706L141.449 199.736Z" fill="black"/>
<path d="M136.19 188.299L134.724 189.468L132.965 205.311C132.965 205.311 133.943 212.347 133.746 213.426C133.55 214.505 137.757 224.178 137.757 224.178C137.757 224.178 151.632 248.912 157.3 250.188L176.455 236.497L171.371 230.045C171.371 230.045 169.613 229.36 169.172 230.045C169.172 230.045 159.743 213.814 158.766 212.64C157.788 211.465 157.985 209.121 157.985 209.121C157.985 209.121 156.519 207.559 157.008 206.092C157.496 204.625 154.171 199.539 154.171 199.539L157.199 196.706L136.19 188.299Z" fill="white"/>
<path opacity="0.1" d="M227.169 250.363C228.231 251.655 227.562 257.453 227.562 257.453L224.63 262.311C224.63 262.311 224.805 265.446 224.816 269.671L219.886 271.213C219.44 271.352 218.968 271.382 218.508 271.302C218.049 271.221 217.615 271.032 217.243 270.749C216.871 270.467 216.573 270.1 216.372 269.678C216.171 269.257 216.073 268.793 216.088 268.327L216.938 240.898L228.438 245.298C227.461 245.979 228.534 247.647 228.534 247.647C228.534 247.647 226.096 249.072 227.169 250.363Z" fill="black"/>
<path d="M227.758 249.773C228.821 251.065 228.151 256.868 228.151 256.868L225.219 261.726C225.219 261.726 225.395 264.856 225.41 269.087L220.391 270.655C219.954 270.79 219.492 270.82 219.042 270.74C218.592 270.661 218.167 270.475 217.804 270.199C217.44 269.922 217.147 269.563 216.951 269.15C216.754 268.738 216.658 268.284 216.672 267.827L217.527 240.313L229.033 244.714C228.051 245.394 229.124 247.057 229.124 247.057C229.124 247.057 226.696 248.487 227.758 249.773Z" fill="white"/>
<path d="M231.567 236.699C231.567 236.699 230.786 241.69 228.831 241.982C226.877 242.274 226 250.055 224.051 249.779C222.101 249.502 223.392 242.545 223.461 241.195C223.53 239.846 221.336 234.254 222.978 232.984C224.619 231.714 229.814 232.984 229.814 232.984L231.567 236.699Z" fill="#CF6F80"/>
<path opacity="0.1" d="M235.726 198.269L239.413 190.828C239.413 190.828 240.879 196.499 240.879 199.528C240.879 202.558 242.93 202.855 242.93 202.855C242.93 202.855 245.177 205.513 243.992 207.447C242.807 209.382 242.329 214.197 242.329 214.197C242.329 214.197 242.717 223.386 240.959 224.656C239.2 225.926 238.834 228.961 238.834 228.961C238.834 228.961 235.604 234.727 235.705 236.099C235.806 237.47 231.211 246.755 231.211 246.755C231.211 246.755 233.458 235.216 220.364 230.231C220.364 230.231 220.263 226.314 221.241 225.241C222.218 224.167 223.743 223.678 222.786 218.252C221.83 212.826 222.51 206.342 222.51 205.04C222.51 203.738 225.442 195.617 225.442 195.617L235.726 198.269Z" fill="black"/>
<path d="M237.32 189.765L240.539 190.828C240.539 190.828 242.011 196.499 242.011 199.528C242.011 202.558 244.061 202.855 244.061 202.855C244.061 202.855 246.308 205.513 245.123 207.447C243.939 209.382 243.466 214.197 243.466 214.197C243.466 214.197 243.854 223.386 242.096 224.656C240.337 225.926 239.944 228.961 239.944 228.961C239.944 228.961 236.72 234.727 236.821 236.099C236.922 237.47 232.321 246.755 232.321 246.755C232.321 246.755 234.574 235.216 221.474 230.231C221.474 230.231 221.379 226.314 222.356 225.241C223.333 224.167 224.858 223.678 223.902 218.252C222.946 212.826 223.626 206.342 223.626 205.04C223.626 203.738 226.558 195.617 226.558 195.617L237.32 189.765Z" fill="white"/>
<path opacity="0.1" d="M166.219 382.619C166.219 382.619 171.35 379.393 174.718 381.736C178.086 384.08 166.219 382.619 166.219 382.619Z" fill="black"/>
<path opacity="0.1" d="M206.091 372.643C206.091 372.643 210.632 372.058 214.446 376.167C218.26 380.275 206.091 372.643 206.091 372.643Z" fill="black"/>
<g opacity="0.1">
<path opacity="0.1" d="M212.736 115.62C212.083 116.184 211.243 116.588 210.808 117.337C210.436 117.98 210.425 118.772 210.128 119.463C209.83 120.154 208.964 120.717 208.364 120.281C208.226 115.498 205.867 111.007 202.972 107.181C202.163 106.026 201.179 105.004 200.056 104.151C198.919 103.296 197.504 102.896 196.088 103.03C194.494 103.248 193.092 104.332 191.483 104.465C189.358 104.646 187.451 103.174 185.342 103.099C184.485 103.108 183.64 103.299 182.863 103.661C182.086 104.024 181.395 104.548 180.837 105.198C179.728 106.507 178.905 108.033 178.42 109.679C177.586 112.176 177.131 114.784 177.071 117.417C177.039 118.9 176.901 120.749 175.531 121.302C175.562 121.694 175.562 122.089 175.531 122.482C176.912 121.95 177.05 120.079 177.082 118.591C177.141 115.959 177.596 113.35 178.431 110.853C178.916 109.206 179.739 107.678 180.848 106.368C181.407 105.719 182.098 105.196 182.875 104.835C183.651 104.474 184.496 104.283 185.352 104.274C187.477 104.348 189.39 105.815 191.493 105.64C193.087 105.507 194.5 104.417 196.099 104.205C197.515 104.071 198.93 104.471 200.067 105.326C201.19 106.179 202.174 107.201 202.983 108.355C205.878 112.177 208.237 116.657 208.375 121.451C208.975 121.892 209.841 121.318 210.138 120.638C210.436 119.957 210.446 119.16 210.818 118.512C211.254 117.762 212.093 117.364 212.747 116.8C214.404 115.371 214.818 112.963 214.755 110.779C214.755 110.71 214.755 110.641 214.755 110.577C214.654 112.469 214.149 114.398 212.736 115.62Z" fill="black"/>
<path opacity="0.1" d="M173.523 115.243C172.301 113.899 170.633 113 169.512 111.576C168.568 110.315 168.029 108.797 167.966 107.223C167.799 109.19 168.348 111.151 169.512 112.745C170.633 114.175 172.301 115.073 173.523 116.418C174.696 117.733 175.4 119.4 175.525 121.158C175.607 120.088 175.471 119.013 175.127 117.996C174.783 116.98 174.237 116.044 173.523 115.243Z" fill="black"/>
<path opacity="0.1" d="M215.79 99.1982C215.477 100.5 214.919 101.739 214.664 103.051C214.513 103.928 214.458 104.82 214.5 105.709C214.517 105.202 214.572 104.698 214.664 104.199C214.919 102.881 215.477 101.648 215.79 100.346C215.973 99.628 216.032 98.8839 215.966 98.1459C215.933 98.5004 215.874 98.8521 215.79 99.1982Z" fill="black"/>
</g>
<path opacity="0.1" d="M70.5065 404.228C99.093 404.228 122.267 400.504 122.267 395.911C122.267 391.317 99.093 387.593 70.5065 387.593C41.9201 387.593 18.7462 391.317 18.7462 395.911C18.7462 400.504 41.9201 404.228 70.5065 404.228Z" fill="#00CFFC"/>
<path d="M72.1745 236.577H68.8439V311.604H72.1745V236.577Z" fill="#535461"/>
<path d="M93.1038 311.376L92.8967 314.756L92.5992 319.539L92.477 321.527L92.1848 326.31L92.0574 328.297L91.7599 333.081L88.4027 387.327C88.2568 389.661 87.2274 391.852 85.5241 393.453C83.8208 395.055 81.5715 395.947 79.2341 395.948H61.7788C59.442 395.947 57.1933 395.055 55.4909 393.453C53.7884 391.852 52.7602 389.661 52.6156 387.327L49.2743 333.043L48.9769 328.26L48.8547 326.272L48.5572 321.489L48.435 319.502L48.1375 314.718L47.9251 311.338C47.8882 310.688 47.9845 310.037 48.2082 309.425C48.4319 308.813 48.7782 308.253 49.2258 307.779C49.6735 307.306 50.2131 306.929 50.8115 306.672C51.41 306.415 52.0546 306.283 52.7059 306.284H88.408C89.0568 306.29 89.6976 306.428 90.2909 306.691C90.8841 306.954 91.4172 307.336 91.8572 307.813C92.2972 308.29 92.6348 308.852 92.8493 309.465C93.0637 310.078 93.1503 310.728 93.1038 311.376Z" fill="#3F3D56"/>
<path d="M92.8967 314.756L92.5992 319.523H48.4138L48.1163 314.756H92.8967Z" fill="#9D9CB5"/>
<path d="M92.477 321.511L92.1849 326.283H48.8335L48.536 321.511H92.477Z" fill="#9D9CB5"/>
<path d="M92.0574 328.276L91.7652 333.043H49.2531L48.9556 328.276H92.0574Z" fill="#9D9CB5"/>
<path d="M43.0327 264.697C62.4269 278.738 70.5224 300.698 70.5224 300.698C70.5224 300.698 47.1495 299.896 27.75 285.855C8.3505 271.813 0.270905 249.858 0.270905 249.858C0.270905 249.858 23.6332 250.655 43.0327 264.697Z" fill="#00CFFC"/>
<path d="M0.254974 249.858C0.254974 249.858 24.5203 263.331 32.3024 274.486C40.0845 285.642 70.5224 300.698 70.5224 300.698" stroke="#535461" stroke-width="2" stroke-miterlimit="10"/>
<path d="M55.5531 236.412C66.1081 244.049 70.5224 256.002 70.5224 256.002C70.5224 256.002 57.8001 255.566 47.2398 247.929C36.6795 240.292 32.2758 228.334 32.2758 228.334C32.2758 228.334 44.9928 228.77 55.5531 236.412Z" fill="#00CFFC"/>
<path d="M32.2758 228.334C32.2758 228.334 45.4815 235.668 49.7152 241.737C53.9489 247.807 70.5224 256.002 70.5224 256.002" stroke="#535461" stroke-width="2" stroke-miterlimit="10"/>
<path d="M85.8476 255.396C73.7203 268.731 71.1546 286.157 71.1546 286.157C71.1546 286.157 88.254 281.959 100.371 268.619C112.487 255.279 115.064 237.858 115.064 237.858C115.064 237.858 97.975 242.062 85.8476 255.396Z" fill="#00CFFC"/>
<path d="M115.074 237.863C115.074 237.863 99.2764 251.532 95.2605 260.95C91.2447 270.368 71.1546 286.157 71.1546 286.157" stroke="#535461" stroke-width="2" stroke-miterlimit="10"/>
<path d="M531.027 250.703C531.027 250.703 522.257 207.049 525.614 201.617C525.614 201.617 525.736 196.568 525.535 190.132C525.535 189.888 525.535 189.643 525.535 189.393C526.125 189.787 526.741 190.142 527.378 190.456C530.471 192.046 534.022 192.505 537.418 191.753L534.762 188.793C534.124 188.086 533.46 187.321 533.322 186.385C533.184 185.45 533.566 184.615 533.896 183.781C536.419 177.403 536.552 169.384 531.691 164.515C527.585 160.423 526.586 155.14 522.13 151.404C518.873 148.667 517.083 144.655 515.394 140.775C513.965 137.496 512.525 134.19 511.707 130.714C511.07 127.998 510.815 125.187 509.938 122.535C509.062 119.883 507.421 117.305 504.855 116.12C503.941 115.7 502.927 115.461 502.093 114.903C500.998 114.164 500.34 112.963 499.548 111.911C495.527 106.596 482.061 109.727 475.687 111.884C473.954 112.428 472.349 113.317 470.969 114.499L471.028 114.403C471.076 114.324 471.134 114.244 471.187 114.164C470.49 114.729 469.887 115.402 469.402 116.157C468.473 117.629 468.085 119.346 467.309 120.94C466.375 122.827 461.174 128.094 463.41 130.215C463.567 130.357 463.747 130.472 463.942 130.555C464.781 130.904 465.706 130.997 466.598 130.82L466.502 131.049C465.738 132.92 465.347 134.922 465.349 136.943C465.349 145.675 472.547 152.754 481.434 152.754C483.105 152.756 484.766 152.499 486.358 151.994C486.396 152.196 486.427 152.398 486.465 152.6C486.465 152.68 486.491 152.759 486.502 152.839L486.22 153.232C486.206 153.208 486.19 153.185 486.172 153.163L477.833 164.824C476.558 165.722 469.216 171.037 468.802 175.023C468.367 179.386 467.931 184.493 467.931 184.493L467.873 185.588C467.508 185.893 467.082 186.115 466.623 186.239C466.165 186.362 465.685 186.385 465.217 186.306C462.614 185.88 462.614 195.872 462.614 195.872C462.614 195.872 460.882 197.466 459.692 196.085C458.502 194.703 455.357 199.385 455.357 199.385L435.65 200.235L435.198 200.262L434.136 196.972C434.022 196.625 433.775 196.337 433.45 196.171C433.124 196.005 432.747 195.974 432.399 196.085C432.317 196.112 432.237 196.145 432.16 196.185L432.085 196.228L431.947 196.324L431.878 196.387C431.84 196.422 431.805 196.459 431.772 196.499L431.708 196.573L431.676 196.605C431.554 196.775 431.472 196.971 431.439 197.178C431.406 197.385 431.422 197.596 431.485 197.796L432.399 200.618C428.595 201.383 424.707 203.541 427.878 209.483L411.804 206.512L417.005 210.881L443.852 216.424C443.496 217.062 443.729 217.986 444.84 219.288C449.62 224.906 458.332 226.431 461.838 226.825C462.764 228.897 463.92 230.858 465.286 232.671L464.983 238.267C464.983 238.267 456.106 280.923 454.481 283.086C455.301 282.155 456.053 281.166 456.728 280.125C454.152 288.889 450.55 300.884 449.604 302.681C448.085 305.551 446.678 317.163 448.409 317.907C448.94 318.136 450.46 318.024 452.627 317.859V318.821L452.531 355.275C452.531 355.275 452.967 377.633 451.772 379.765C450.577 381.896 450.258 386.365 450.258 386.365C450.258 386.365 445.477 395.182 441.69 398.727C441.664 398.755 441.635 398.78 441.605 398.802L441.488 397.973C441.488 397.973 436.935 403.723 426.864 403.399C426.864 403.399 420.803 407.342 429.791 407.555C438.779 407.768 450.258 407.236 450.258 407.236C450.258 407.236 458.274 395.012 464.988 396.607V405.87H467.044V396.458C467.997 395.83 468.813 395.015 469.442 394.062C470.071 393.109 470.501 392.039 470.704 390.915C470.88 389.757 470.751 388.572 470.33 387.479C469.909 386.386 469.21 385.421 468.303 384.681C467.895 384.312 467.568 383.863 467.342 383.362C467.117 382.861 466.997 382.318 466.991 381.768L466.916 381.832C466.916 381.646 466.869 381.455 466.847 381.258C466.258 376.475 465.519 366.606 468.128 359.303C471.702 349.29 472.786 335.345 470.183 327.043C469.343 324.39 468.654 321.691 468.117 318.96C468.053 318.614 467.995 318.285 467.942 317.976C469.721 318.217 471.483 318.572 473.216 319.039C479.246 320.703 492.435 321.011 503.697 320.921C503.723 321.229 503.755 321.553 503.792 321.877C503.993 324.131 504.413 326.359 505.046 328.531C506.459 332.783 507.107 351.528 507.107 351.528C507.107 351.528 508.929 366.94 507.936 373.212C507.405 376.698 506.873 380.2 506.571 383.719V383.788C506.571 383.788 503.585 392.291 501.402 396.91C501.349 397.027 501.29 397.144 501.237 397.255C500.655 397.308 500.082 397.435 499.532 397.633C499.532 397.633 496.605 403.479 493.689 404.446C490.773 405.413 491.739 408.597 498.342 407.427C504.945 406.258 514.916 405.302 514.916 405.302L515.346 399.339L517.375 396.798L516.844 402.745L519.006 402.32L518.719 395.087L522.039 390.931C522.039 390.931 526.05 387.359 520.09 380.333V380.487C520.026 380.386 519.968 380.28 519.898 380.179V380.147C518.91 378.617 518.124 375.763 519.564 370.698C522.167 361.546 523.681 353.239 523.681 353.239C523.681 353.239 529.492 330.987 522.507 320.458H522.815C522.099 318.977 521.593 317.403 521.312 315.781C521.276 315.59 521.244 315.393 521.216 315.191C526.384 314.894 531.457 313.958 535.596 311.939C535.58 311.918 533.088 259.111 531.027 250.703ZM465.408 213.873V213.979L464.345 214.032L465.408 213.873ZM461.764 214.378C461.589 214.416 461.425 214.494 461.286 214.606C460.829 215.253 460.542 216.004 460.452 216.79L458.794 216.418C458.794 216.418 457.631 216.169 455.958 215.887L455.166 215.09C457.344 214.909 459.607 214.643 461.764 214.378Z" fill="url(#paint1_linear)"/>
<path d="M516.6 395.161L515.968 402.692L518.087 402.267L517.768 394.098L516.6 395.161Z" fill="#1D2366"/>
<path d="M468.244 359.404C465.689 366.685 466.412 376.512 466.985 381.285C467.198 383.049 467.394 384.123 467.394 384.123C467.394 384.123 463.575 392.828 463.256 393.158C462.938 393.487 452.016 400.157 452.016 400.157L444.383 404.616C444.383 404.616 436.638 401.22 440.351 400.051C441.11 399.746 441.793 399.28 442.354 398.685C446.072 395.151 450.741 386.365 450.741 386.365C450.741 386.365 451.06 381.906 452.229 379.786C453.397 377.665 452.972 355.381 452.972 355.381L453.063 319.055V314.32L467.591 314.426C467.683 316.034 467.892 317.632 468.218 319.209C468.739 321.931 469.415 324.621 470.242 327.266C472.802 335.552 471.74 349.429 468.244 359.404Z" fill="#FFB0B1"/>
<path opacity="0.1" d="M467.394 384.123C467.394 384.123 463.575 392.828 463.256 393.158C462.938 393.487 452.016 400.157 452.016 400.157L444.383 404.616C444.383 404.616 436.638 401.22 440.351 400.051C441.11 399.746 441.793 399.28 442.354 398.685L442.683 401.007L445.227 400.901L467.007 381.295C467.198 383.049 467.394 384.123 467.394 384.123Z" fill="black"/>
<path d="M467.129 381.789L445.227 401.528L442.683 401.634L442.152 397.914C442.152 397.914 437.7 403.643 427.809 403.325C427.809 403.325 421.87 407.252 430.672 407.465C439.474 407.677 450.715 407.146 450.715 407.146C450.715 407.146 458.566 394.922 465.137 396.516V405.748H467.155V396.431C468.094 395.799 468.895 394.984 469.51 394.034C470.125 393.084 470.542 392.019 470.736 390.904C470.91 389.755 470.787 388.581 470.377 387.494C469.966 386.406 469.283 385.443 468.393 384.697C467.996 384.324 467.678 383.874 467.461 383.374C467.244 382.874 467.131 382.335 467.129 381.789Z" fill="#1D2366"/>
<path d="M518.618 370.756C517.205 375.805 517.976 378.649 518.942 380.174V380.206C520.182 382.089 521.045 384.196 521.481 386.408L521.566 386.886L511.601 401.422L506.193 403.548C506.193 403.548 497.498 400.577 499.086 399.727C499.484 399.519 500.106 398.414 500.818 396.888C502.943 392.291 505.875 383.809 505.875 383.809V383.74C506.183 380.238 506.672 376.746 507.213 373.27C508.185 367.015 506.401 351.661 506.401 351.661C506.401 351.661 505.763 332.99 504.382 328.744C503.759 326.585 503.344 324.371 503.144 322.132C502.858 319.475 502.794 317.285 502.794 317.285C502.794 317.285 508.52 309.313 519.017 317.923C519.856 318.61 520.595 319.411 521.211 320.304C528.461 330.625 522.624 353.361 522.624 353.361C522.624 353.361 521.163 361.631 518.618 370.756Z" fill="#FFB0B1"/>
<path opacity="0.1" d="M521.582 386.886L511.617 401.422L506.209 403.548C506.209 403.548 497.514 400.577 499.102 399.727C499.5 399.519 500.122 398.414 500.834 396.888C504.515 396.857 506.422 400.364 506.422 400.364L511.086 399.62C511.086 399.62 517.237 387.524 518.618 386.785C519.999 386.047 518.831 381.263 518.831 381.263V380.046C518.868 380.089 518.9 380.137 518.942 380.179V380.211C520.182 382.094 521.045 384.201 521.481 386.413L521.582 386.886Z" fill="black"/>
<path d="M506.741 400.678C506.741 400.678 504.085 395.799 498.996 397.601C498.996 397.601 496.132 403.447 493.269 404.393C490.406 405.339 491.362 408.528 497.832 407.364C504.302 406.2 514.055 405.238 514.055 405.238L514.48 399.291L521.057 390.909C521.057 390.909 524.977 387.354 519.144 380.355V381.572C519.144 381.572 520.313 386.355 518.932 387.094C517.551 387.832 511.42 399.934 511.42 399.934L506.741 400.678Z" fill="#1D2366"/>
<path opacity="0.1" d="M467.607 314.415C467.699 316.023 467.908 317.622 468.234 319.199C462.252 318.322 456.701 318.758 453.063 319.045V314.309L467.607 314.415Z" fill="black"/>
<path opacity="0.1" d="M521.8 321.628C521.8 321.628 513.301 322.042 503.166 322.127C502.879 319.47 502.815 317.28 502.815 317.28C502.815 317.28 508.541 309.308 519.038 317.918C519.877 318.605 520.616 319.406 521.232 320.299C521.396 320.752 521.586 321.196 521.8 321.628Z" fill="black"/>
<path d="M521.8 320.671C521.8 320.671 484.574 322.473 473.227 319.289C461.881 316.106 450.635 318.864 448.94 318.125C447.246 317.386 448.622 305.816 450.109 302.952C451.596 300.087 459.756 271.117 459.756 271.117L467.607 230.162L475.878 227.882L476.462 227.717L490.874 223.742L501.434 220.824C501.434 220.824 522.432 302.846 520.632 308.894C519.978 311.21 519.872 313.646 520.323 316.01C520.599 317.624 521.096 319.193 521.8 320.671Z" fill="#1D2366"/>
<path d="M440.239 202.154C440.239 202.154 432.803 210.126 438.433 214.569C444.064 219.012 447.766 214.994 447.766 214.994L440.239 202.154Z" fill="#C7DAF5"/>
<path opacity="0.1" d="M440.239 202.154C440.239 202.154 432.803 210.126 438.433 214.569C444.064 219.012 447.766 214.994 447.766 214.994L440.239 202.154Z" fill="black"/>
<path d="M500.324 149.741C500.324 149.741 499.453 150.57 498.14 151.792C496.271 153.541 493.503 156.097 491.049 158.239C487.649 161.199 484.844 163.373 485.848 161.518C486.852 159.663 486.661 156.432 486.162 153.408C486.125 153.206 486.093 153.004 486.056 152.807C485.642 150.586 485.094 148.393 484.414 146.238C484.414 146.238 489.907 139.138 492.945 136.337C494.077 135.274 494.868 134.838 494.916 135.577C494.969 136.571 495.713 138.766 496.637 141.094C496.664 141.168 496.69 141.237 496.722 141.312C497.338 142.906 498.034 144.543 498.645 145.957C499.58 148.125 500.324 149.741 500.324 149.741Z" fill="#FFB0B1"/>
<path opacity="0.1" d="M496.722 141.312C496.206 144.089 494.954 146.677 493.096 148.805C491.238 150.933 488.843 152.523 486.162 153.408C485.739 150.982 485.156 148.587 484.414 146.238C484.414 146.238 494.757 132.872 494.916 135.577C494.953 136.603 495.761 138.877 496.722 141.312Z" fill="black"/>
<path opacity="0.1" d="M485.131 156.979L486.47 155.093C486.47 155.093 487.357 160.503 490.619 158.117C493.88 155.73 494.04 176.075 494.04 176.075L490.539 228.44L465.243 226.926L465.96 201.622L468.823 188.867L475.904 170.324L480.117 164.197L485.131 156.979Z" fill="black"/>
<path d="M494.04 176.399L490.852 223.747L490.518 228.764L476.414 227.919L475.883 227.887L465.259 227.25L465.976 201.941L468.839 189.186L475.92 170.643L480.133 164.515L485.147 157.272L486.486 155.39C486.486 155.39 487.373 160.8 490.635 158.414L490.704 158.366C493.891 156.347 494.04 176.399 494.04 176.399Z" fill="#1D2366"/>
<path d="M469.195 184.754C469.195 184.754 467.926 187.411 465.376 186.981C462.826 186.55 462.831 196.547 462.831 196.547C462.831 196.547 461.137 198.141 459.968 196.759C458.8 195.378 455.719 200.049 455.719 200.049L436.415 200.9C436.415 200.9 445.004 204.827 443.32 216.711C443.32 216.711 472.483 214.904 473.44 212.145C474.396 209.387 469.195 184.754 469.195 184.754Z" fill="white"/>
<path opacity="0.03" d="M469.195 184.754C469.195 184.754 467.926 187.411 465.376 186.981C462.826 186.55 462.831 196.547 462.831 196.547C462.831 196.547 461.137 198.141 459.968 196.759C458.8 195.378 455.719 200.049 455.719 200.049L436.415 200.9C436.415 200.9 445.004 204.827 443.32 216.711C443.32 216.711 472.483 214.904 473.44 212.145C474.396 209.387 469.195 184.754 469.195 184.754Z" fill="black"/>
<path d="M413.095 207.144L418.184 211.492L460.074 220.298L454.879 214.994L413.095 207.144Z" fill="white"/>
<path d="M485.211 158.653C484.515 159.716 482.523 165.159 480.86 169.91C479.474 173.869 478.316 177.35 478.316 177.35C478.316 177.35 475.612 194.963 474.231 198.147C472.85 201.33 473.599 213.745 473.599 213.745L468.451 244.405C468.451 244.405 466.12 260.217 462.518 269.661C458.964 278.956 455.007 283.314 454.885 283.452C456.478 281.295 465.163 238.809 465.163 238.809L468.032 185.227C468.032 185.227 468.451 180.135 468.876 175.783C469.301 171.43 477.907 165.488 477.907 165.488L486.204 153.684C487.038 154.8 486.48 156.745 485.211 158.653Z" fill="white"/>
<path d="M463.575 227.515C463.575 227.515 451.357 226.984 445.44 219.873C439.522 212.762 459.118 217.035 459.118 217.035L464.213 218.204L463.575 227.515Z" fill="#FFB0B1"/>
<path opacity="0.1" d="M520.632 308.899C519.978 311.215 519.872 313.651 520.323 316.015C506.996 316.961 492.738 313.358 492.738 313.358C490.082 315.803 483.086 319.406 483.086 319.406L479.272 272.105C476.834 265.728 475.878 232.315 475.878 232.315C475.878 232.315 476.096 230.566 476.409 227.946C476.409 227.882 476.409 227.813 476.436 227.749C477.386 220.431 479.272 206.693 480.196 204.838C481.471 202.287 476.276 195.5 476.276 195.5L478.64 175.331L478.927 172.897C483.91 170.67 487.729 163.559 487.729 163.559L490.661 158.419C493.848 156.373 494.013 176.426 494.013 176.426L490.826 223.774L501.386 220.856C501.386 220.856 522.432 302.851 520.632 308.899Z" fill="black"/>
<path d="M534.31 312.167C519.782 319.385 493.376 312.699 493.376 312.699C490.72 315.144 483.724 318.747 483.724 318.747L479.904 271.446C477.471 265.069 476.515 231.656 476.515 231.656C476.515 231.656 479.586 206.724 480.86 204.179C481.232 203.435 481.052 202.329 480.611 201.139C478.443 195.472 477.646 189.373 478.284 183.34L479.304 174.672L479.586 172.243C484.574 170.011 488.393 162.9 488.393 162.9L491.049 158.244L495.936 149.666L498.252 145.606L498.645 145.962L501.646 148.683C501.646 148.683 502.921 149.746 504.834 151.34C508.993 154.848 516.18 161.024 519.888 164.802C523.149 168.129 524.18 181.071 524.477 190.812C524.674 197.227 524.557 202.255 524.557 202.255C521.269 207.67 529.869 251.15 529.869 251.15C531.872 259.552 534.31 312.167 534.31 312.167Z" fill="white"/>
<path opacity="0.03" d="M506.422 162.793C506.422 162.793 496.451 181.783 497.609 189C498.767 196.217 502.061 204.386 500.472 206.294C499.927 207.017 499.221 207.604 498.411 208.008C497.601 208.413 496.709 208.625 495.803 208.627C494.21 208.733 489.96 211.704 489.96 212.023C489.96 212.342 486.034 212.342 482.523 213.83C479.012 215.318 473.827 216.163 473.827 216.163C473.827 216.163 463.735 215.844 462.794 216.801C461.854 217.758 460.887 223.482 462.901 228.047C464.914 232.612 467.15 236.019 468.839 236.641C470.529 237.263 481.248 233.67 489.944 232.819C498.64 231.969 508.079 225.076 508.079 225.076C508.079 225.076 518.475 221.356 520.297 215.1C522.119 208.845 518.071 174.464 518.071 174.464C518.071 174.464 515.011 158.441 506.422 162.793Z" fill="black"/>
<path opacity="0.03" d="M505.147 161.199C505.147 161.199 495.176 180.194 496.345 187.406C497.514 194.618 500.796 202.792 499.203 204.705C498.659 205.429 497.955 206.016 497.145 206.421C496.336 206.826 495.444 207.037 494.539 207.038C492.945 207.144 488.696 210.115 488.696 210.434C488.696 210.753 484.77 210.753 481.259 212.236C477.748 213.719 472.563 214.569 472.563 214.569C472.563 214.569 462.47 214.25 461.535 215.207C460.6 216.163 459.623 221.893 461.641 226.453C463.66 231.012 465.891 234.425 467.58 235.046C469.27 235.668 479.989 232.075 488.685 231.23C497.381 230.385 506.82 223.482 506.82 223.482C506.82 223.482 517.211 219.761 519.011 213.511C520.812 207.261 516.786 172.87 516.786 172.87C516.786 172.87 513.737 156.852 505.147 161.199Z" fill="black"/>
<path d="M506.108 161.837C506.108 161.837 496.138 180.831 497.306 188.043C498.475 195.255 501.758 203.429 500.17 205.337C499.626 206.063 498.921 206.652 498.111 207.057C497.3 207.463 496.407 207.675 495.5 207.676C493.907 207.782 489.657 210.753 489.657 211.067C489.657 211.38 485.737 211.385 482.22 212.874C478.704 214.362 473.524 215.207 473.524 215.207C473.524 215.207 463.432 214.888 462.491 215.844C461.551 216.801 460.584 222.53 462.598 227.09C464.611 231.65 466.847 235.062 468.537 235.684C470.226 236.306 480.945 232.713 489.641 231.863C498.337 231.013 507.776 224.119 507.776 224.119C507.776 224.119 518.172 220.399 519.994 214.144C521.816 207.888 517.795 173.508 517.795 173.508C517.795 173.508 514.693 157.511 506.108 161.837Z" fill="white"/>
<path opacity="0.1" d="M505.891 212.783C505.891 212.783 497.923 211.189 500.696 213.846C503.468 216.503 503.452 218.831 506.847 218.725C510.241 218.619 505.891 212.783 505.891 212.783Z" fill="black"/>
<path opacity="0.1" d="M519.357 269.958C519.357 269.958 515.755 272.398 522.645 278.021C529.534 283.644 519.357 269.958 519.357 269.958Z" fill="black"/>
<path opacity="0.1" d="M512.483 290.011C512.483 290.329 511.208 301.703 515.978 304.546C520.749 307.39 512.483 290.011 512.483 290.011Z" fill="black"/>
<path d="M436.744 200.873C432.898 201.006 424.59 202.18 428.898 210.222C432.707 217.338 439.108 212.581 442.709 208.973C441.831 205.608 439.696 202.709 436.744 200.873Z" fill="#FFB0B1"/>
<path d="M442.757 208.91L442.918 208.744L442.757 208.91Z" fill="#FFB0B1"/>
<path opacity="0.1" d="M504.834 151.665C500.754 154.455 497.333 156.809 496.664 157.298C494.836 158.653 491.352 166.609 489.105 170.67C487.315 173.938 481.498 174.778 479.304 174.985L479.586 172.557C484.574 170.324 488.393 163.213 488.393 163.213L498.252 145.919L501.646 149.007C501.646 149.007 502.921 150.07 504.834 151.665Z" fill="black"/>
<path d="M504.834 151.346C500.754 154.136 497.333 156.49 496.664 156.985C494.836 158.334 491.352 166.291 489.105 170.351C487.315 173.619 481.498 174.459 479.304 174.666L479.586 172.238C484.574 170.005 488.393 162.894 488.393 162.894L498.252 145.601L501.646 148.678C501.646 148.678 502.921 149.73 504.834 151.346Z" fill="#DCE7FF"/>
<path d="M496.982 137.804C496.985 140.994 496.018 144.11 494.21 146.738C492.074 149.845 488.896 152.083 485.252 153.047C481.609 154.01 477.74 153.635 474.35 151.989C470.959 150.343 468.27 147.535 466.771 144.076C465.272 140.616 465.063 136.733 466.18 133.132C467.298 129.531 469.669 126.45 472.863 124.448C476.057 122.446 479.862 121.656 483.589 122.221C487.315 122.787 490.715 124.67 493.173 127.529C495.63 130.388 496.982 134.033 496.982 137.804Z" fill="#FFB0B1"/>
<path opacity="0.1" d="M524.477 190.818C522.32 189.49 520.563 187.602 519.394 185.354C518.507 183.6 517.917 181.575 516.403 180.332C515.038 179.216 513.216 178.945 511.516 178.445C505.928 176.792 501.243 171.69 501.067 165.865C500.982 163.123 501.838 160.386 501.45 157.67C501.229 156.133 500.618 154.678 499.676 153.445C499.207 152.855 498.694 152.302 498.14 151.792C497.397 151.091 496.616 150.41 495.936 149.666C495.508 149.206 495.133 148.697 494.82 148.152C494.568 147.705 494.363 147.233 494.21 146.743C493.147 143.491 494.114 139.632 492.945 136.342L492.881 136.162C492.441 134.992 491.543 133.823 490.295 133.733C489.046 133.643 487.979 134.679 486.789 135.141C484.297 136.109 481.609 134.461 479.532 132.782C477.455 131.102 475.113 129.184 472.473 129.556C470.725 129.805 469.344 130.996 467.734 131.612C467.371 131.753 466.996 131.862 466.614 131.937C467.976 128.538 470.478 125.72 473.691 123.967C476.905 122.214 480.628 121.635 484.221 122.33C487.815 123.025 491.054 124.95 493.383 127.775C495.711 130.599 496.984 134.148 496.982 137.809C496.984 138.915 496.868 140.018 496.637 141.099C496.664 141.173 496.69 141.243 496.722 141.317C497.338 142.911 498.034 144.548 498.645 145.962L501.646 148.683C501.646 148.683 502.921 149.746 504.834 151.34C508.993 154.848 516.18 161.024 519.888 164.802C523.149 168.14 524.169 181.076 524.477 190.818Z" fill="black"/>
<path d="M467.548 121.902C468.308 120.356 468.685 118.623 469.594 117.156C470.927 115.031 473.254 113.67 475.644 112.846C481.886 110.694 495.075 107.569 499.017 112.846C499.793 113.909 500.435 115.089 501.508 115.822C502.326 116.381 503.314 116.62 504.212 117.04C506.725 118.219 508.329 120.792 509.184 123.417C510.039 126.043 510.294 128.859 510.921 131.564C511.723 135.035 513.131 138.325 514.533 141.593C516.185 145.452 517.938 149.454 521.126 152.18C525.476 155.9 526.438 161.167 530.475 165.249C535.256 170.096 535.101 178.094 532.637 184.445C532.313 185.28 531.946 186.151 532.074 187.039C532.201 187.926 532.86 188.734 533.481 189.441L536.095 192.391C529.912 193.884 522.916 190.653 520.037 184.982C519.149 183.228 518.56 181.209 517.041 179.96C515.681 178.844 513.853 178.578 512.159 178.078C506.571 176.42 501.885 171.313 501.71 165.488C501.625 162.751 502.48 160.014 502.093 157.303C501.877 155.756 501.264 154.291 500.313 153.052C498.852 151.144 496.648 149.863 495.458 147.737C493.445 144.181 494.974 139.563 493.524 135.747C493.078 134.578 492.186 133.409 490.937 133.318C489.689 133.228 488.621 134.264 487.426 134.727C484.94 135.694 482.252 134.052 480.175 132.367C478.098 130.682 475.756 128.769 473.11 129.146C471.363 129.391 469.987 130.581 468.377 131.203C467.187 131.66 464.776 132.069 463.734 131.065C461.535 129.04 466.63 123.794 467.548 121.902Z" fill="#591D4B"/>
<path opacity="0.1" d="M521.513 183.228C520.621 181.475 520.037 179.455 518.517 178.211C517.157 177.095 515.33 176.824 513.63 176.325C508.047 174.672 503.362 169.564 503.182 163.739C503.097 161.002 503.952 158.26 503.569 155.55C503.347 154.012 502.734 152.557 501.79 151.324C500.324 149.416 498.119 148.136 496.935 146.01C494.921 142.46 496.451 137.841 494.996 134.02C494.555 132.856 493.657 131.687 492.414 131.591C491.171 131.495 490.093 132.542 488.903 133.005C486.417 133.972 483.724 132.324 481.652 130.645C479.58 128.966 477.227 127.047 474.587 127.419C472.839 127.669 471.458 128.859 469.854 129.476C468.664 129.933 466.247 130.347 465.206 129.343C463.017 127.217 468.112 121.982 469.025 120.101C469.785 118.549 470.162 116.822 471.076 115.355C471.123 115.275 471.177 115.195 471.23 115.116C470.546 115.682 469.956 116.353 469.482 117.103C468.574 118.57 468.197 120.292 467.437 121.849C466.518 123.731 461.424 128.982 463.618 131.091C464.68 132.101 467.07 131.687 468.26 131.23C469.854 130.608 471.246 129.417 472.993 129.173C475.649 128.796 477.987 130.714 480.058 132.394C482.13 134.073 484.839 135.721 487.315 134.753C488.504 134.291 489.546 133.249 490.82 133.345C492.095 133.441 492.945 134.604 493.407 135.774C494.858 139.59 493.328 144.208 495.341 147.764C496.531 149.852 498.735 151.16 500.196 153.078C501.147 154.318 501.76 155.783 501.976 157.33C502.363 160.04 501.508 162.778 501.593 165.515C501.769 171.361 506.454 176.447 512.042 178.105C513.726 178.605 515.564 178.87 516.924 179.986C518.448 181.235 519.049 183.255 519.92 185.009C522.799 190.679 529.795 193.911 535.978 192.417L534.746 191.025C529.386 191.105 523.962 188.054 521.513 183.228Z" fill="black"/>
<path opacity="0.1" d="M484.892 158.972C484.196 160.035 482.204 165.477 480.542 170.229C478.985 169.623 477.572 165.759 477.572 165.759L485.87 153.95C486.72 155.119 486.162 157.059 484.892 158.972Z" fill="black"/>
<path d="M485.211 158.653C484.515 159.716 482.523 165.158 480.86 169.91C479.304 169.309 477.891 165.44 477.891 165.44L486.188 153.636C487.038 154.8 486.48 156.745 485.211 158.653Z" fill="#DCE7FF"/>
<path d="M436.967 212.948L432.367 198.434C432.312 198.264 432.292 198.085 432.307 197.907C432.322 197.729 432.372 197.556 432.454 197.397C432.536 197.239 432.648 197.098 432.784 196.983C432.921 196.868 433.079 196.781 433.249 196.728C433.591 196.621 433.962 196.653 434.28 196.819C434.599 196.984 434.839 197.268 434.949 197.61L439.549 212.108L439.092 215.143L436.967 212.948Z" fill="#BE8B87"/>
<path opacity="0.1" d="M432.803 197.158C433.146 197.05 433.518 197.081 433.837 197.247C434.157 197.412 434.398 197.697 434.508 198.04L439.108 212.539L438.763 214.813L439.097 215.164L439.554 212.129L434.927 197.631C434.818 197.289 434.577 197.005 434.259 196.84C433.941 196.675 433.57 196.642 433.227 196.749C432.939 196.842 432.691 197.029 432.521 197.28C432.611 197.232 432.705 197.191 432.803 197.158Z" fill="white"/>
<path d="M436.967 212.948L439.549 212.13L439.172 214.617L439.092 215.164L438.338 214.378L436.967 212.948Z" fill="#EFC8C4"/>
<path d="M438.338 214.378C438.383 214.321 438.439 214.274 438.502 214.239C438.54 214.216 438.583 214.203 438.627 214.203C438.671 214.203 438.715 214.216 438.752 214.239C438.788 214.283 438.818 214.331 438.842 214.383C438.877 214.442 438.925 214.492 438.982 214.529C439.039 214.567 439.104 214.591 439.172 214.601L439.092 215.132L438.338 214.378Z" fill="#727A9C"/>
<path d="M432.34 203.589C432.34 203.589 441.567 203.536 439.395 207.463C437.222 211.391 433.828 211.864 433.828 211.864L432.34 203.589Z" fill="#FFB0B1"/>
<path d="M374.955 27.328H374.556C358.705 27.328 344.687 35.7199 336.623 48.103C328.559 35.7199 314.541 27.328 298.69 27.328H298.291C286.396 27.4414 275.025 32.2473 266.651 40.7011C258.277 49.155 253.576 60.5738 253.57 72.4761C253.57 87.2561 260.04 108.228 272.656 125.485C296.693 158.366 336.623 187.135 336.623 187.135C336.623 187.135 376.553 158.372 400.585 125.485C413.206 108.228 419.671 87.2561 419.671 72.4761C419.665 60.5747 414.964 49.1567 406.591 40.703C398.219 32.2493 386.849 27.4428 374.955 27.328ZM369.255 128.014C367.45 128.007 365.689 127.455 364.203 126.428C362.718 125.402 361.577 123.95 360.931 122.264H351.454C350.83 122.26 350.223 122.061 349.717 121.695C349.212 121.329 348.833 120.815 348.633 120.223L345.723 111.448L336.511 143.65C336.332 144.27 335.957 144.815 335.441 145.203C334.926 145.591 334.299 145.801 333.654 145.802H333.468C332.795 145.77 332.153 145.507 331.65 145.058C331.148 144.61 330.814 144.002 330.705 143.336L321.213 86.2145L314.275 120.016C314.116 120.658 313.747 121.228 313.226 121.636C312.705 122.043 312.063 122.264 311.402 122.264H298.052C297.652 122.281 297.253 122.217 296.878 122.075C296.503 121.933 296.161 121.718 295.872 121.44C295.583 121.163 295.353 120.83 295.196 120.461C295.038 120.093 294.957 119.696 294.957 119.296C294.957 118.895 295.038 118.498 295.196 118.13C295.353 117.761 295.583 117.428 295.872 117.151C296.161 116.874 296.503 116.658 296.878 116.516C297.253 116.375 297.652 116.31 298.052 116.327H309.064L318.891 70.8817C319.053 70.2098 319.442 69.6148 319.994 69.1985C320.545 68.7821 321.224 68.5703 321.914 68.5991C322.604 68.628 323.262 68.8958 323.777 69.3567C324.291 69.8177 324.63 70.4431 324.735 71.1261L334.429 129.396L342.684 100.585C342.856 99.9785 343.219 99.4436 343.72 99.0605C344.221 98.6774 344.832 98.4665 345.462 98.4594H345.521C346.145 98.4596 346.753 98.6571 347.259 99.0235C347.764 99.39 348.141 99.9068 348.336 100.5L353.6 116.343H360.814C361.327 114.784 362.26 113.397 363.511 112.336C364.762 111.274 366.282 110.579 367.903 110.327C369.524 110.074 371.183 110.275 372.697 110.907C374.211 111.539 375.521 112.577 376.483 113.906C377.445 115.236 378.021 116.806 378.147 118.442C378.273 120.078 377.946 121.718 377.199 123.18C376.453 124.641 375.318 125.868 373.919 126.725C372.52 127.582 370.911 128.036 369.271 128.036L369.255 128.014Z" fill="#00CFFC"/>
</g>
<defs>
<linearGradient id="paint0_linear" x1="189.283" y1="411.817" x2="189.283" y2="84.7848" gradientUnits="userSpaceOnUse">
<stop stop-color="#808080" stop-opacity="0.25"/>
<stop offset="0.54" stop-color="#808080" stop-opacity="0.12"/>
<stop offset="1" stop-color="#808080" stop-opacity="0.1"/>
</linearGradient>
<linearGradient id="paint1_linear" x1="118573" y1="246750" x2="118573" y2="78881.8" gradientUnits="userSpaceOnUse">
<stop stop-color="#808080" stop-opacity="0.25"/>
<stop offset="0.54" stop-color="#808080" stop-opacity="0.12"/>
<stop offset="1" stop-color="#808080" stop-opacity="0.1"/>
</linearGradient>
<clipPath id="clip0">
<rect width="587" height="416" fill="white"/>
</clipPath>
</defs>
</svg>
