<svg width="652" height="503" viewBox="0 0 652 503" fill="none" xmlns="http://www.w3.org/2000/svg">
<path d="M11.0533 436.384C13.7936 414.363 27.4498 392.665 48.4647 385.499C40.177 408.165 40.1788 433.03 48.4698 455.694C51.6989 464.424 56.2001 473.797 53.1626 482.594C51.2727 488.069 46.6494 492.257 41.4814 494.876C36.3132 497.494 30.5775 498.743 24.9135 499.966L23.7989 500.887C14.8075 480.597 8.31301 458.405 11.0533 436.384Z" fill="#F0F0F0"/>
<path d="M48.6732 385.915C36.4352 399.619 28.8288 416.828 26.9347 435.098C26.457 439.024 26.6016 443 27.363 446.881C28.227 450.637 30.0818 454.094 32.7346 456.892C35.1558 459.55 37.9403 461.989 39.6727 465.19C40.5351 466.841 41.0384 468.656 41.1498 470.515C41.2611 472.374 40.9779 474.236 40.3187 475.979C38.7892 480.363 35.7748 483.936 32.7054 487.328C29.2973 491.094 25.6977 494.952 24.2491 499.945C24.0735 500.55 23.1445 500.242 23.3197 499.638C25.8402 490.951 34.2782 486.017 38.3023 478.193C40.1801 474.542 40.9682 470.303 39.2079 466.449C37.6685 463.079 34.7992 460.562 32.3245 457.891C29.6965 455.2 27.7679 451.906 26.7072 448.298C25.7505 444.469 25.453 440.504 25.8272 436.575C26.5285 427.715 28.6193 419.021 32.0232 410.81C35.8559 401.418 41.2681 392.75 48.0256 385.182C48.4441 384.714 49.0889 385.45 48.6732 385.915H48.6732Z" fill="white"/>
<path d="M27.1981 429.179C24.174 428.445 21.5094 426.661 19.6801 424.145C17.8507 421.629 16.9758 418.546 17.2116 415.445C17.2615 414.817 18.2392 414.865 18.1893 415.493C17.9644 418.381 18.7796 421.253 20.4879 423.592C22.1961 425.932 24.6849 427.584 27.5049 428.25C28.1175 428.396 27.8072 429.324 27.1981 429.179Z" fill="white"/>
<path d="M31.3294 455.706C36.7912 452.447 40.8233 447.25 42.6214 441.152C42.7991 440.547 43.7282 440.855 43.5507 441.458C41.6676 447.801 37.4607 453.2 31.7695 456.579C31.2269 456.901 30.7896 456.026 31.3294 455.706Z" fill="white"/>
<path d="M36.7639 402.345C37.8748 402.872 39.0994 403.116 40.3277 403.053C41.5561 402.991 42.7498 402.625 43.8015 401.988C44.3398 401.659 44.7764 402.535 44.2416 402.861C43.0763 403.56 41.7576 403.963 40.4006 404.035C39.0436 404.106 37.6897 403.845 36.457 403.273C36.3363 403.229 36.237 403.141 36.1792 403.026C36.1214 402.911 36.1094 402.779 36.1458 402.656C36.187 402.533 36.2751 402.431 36.3909 402.373C36.5066 402.315 36.6407 402.305 36.7639 402.345Z" fill="white"/>
<path d="M112.521 424.831C112.191 425.046 111.86 425.261 111.53 425.483C107.104 428.392 102.922 431.655 99.0248 435.24C98.7191 435.512 98.4134 435.793 98.1162 436.074C88.8196 444.811 81.227 455.198 75.7244 466.706C73.5391 471.287 71.7056 476.027 70.2399 480.887C68.2162 487.597 66.5562 495.034 62.5502 500.524C62.1387 501.101 61.6918 501.652 61.212 502.174H25.01C24.9277 502.133 24.8451 502.1 24.7624 502.059L23.317 502.125C23.375 501.869 23.4408 501.605 23.4988 501.349C23.5319 501.2 23.5731 501.052 23.6061 500.903C23.6307 500.804 23.6557 500.705 23.6723 500.614C23.6803 500.581 23.6888 500.548 23.6969 500.524C23.7134 500.433 23.7384 500.35 23.7549 500.268C24.1183 498.79 24.4927 497.313 24.8781 495.835C24.8781 495.827 24.8781 495.827 24.8862 495.819C27.8517 484.568 31.7831 473.466 37.2756 463.313C37.441 463.008 37.606 462.694 37.7878 462.389C40.289 457.826 43.1592 453.475 46.3697 449.38C48.1349 447.143 50.0122 444.997 51.9946 442.95C57.1268 437.67 63.058 433.23 69.5709 429.792C82.5552 422.941 97.5874 420.316 111.464 424.501C111.819 424.608 112.166 424.716 112.521 424.831Z" fill="#F0F0F0"/>
<path d="M112.44 425.291C94.4123 428.869 77.9716 438.032 65.4524 451.48C62.706 454.327 60.4257 457.589 58.6956 461.146C57.1223 464.665 56.5208 468.541 56.9534 472.371C57.2849 475.951 58.0388 479.573 57.494 483.171C57.1877 485.008 56.4963 486.76 55.4651 488.312C54.4338 489.863 53.086 491.18 51.51 492.174C47.6477 494.754 43.088 495.793 38.5937 496.655C33.6037 497.612 28.4054 498.526 24.2406 501.641C23.736 502.018 23.1796 501.214 23.6834 500.837C30.9293 495.418 40.6394 496.555 48.5661 492.729C52.2648 490.944 55.4477 488.034 56.3639 483.897C57.1652 480.28 56.3909 476.544 56.0238 472.923C55.547 469.192 55.9914 465.402 57.3182 461.883C58.8615 458.25 61.0122 454.905 63.6782 451.993C69.5757 445.341 76.4832 439.657 84.1474 435.15C92.8661 429.957 102.409 426.292 112.364 424.315C112.981 424.193 113.052 425.169 112.44 425.291H112.44Z" fill="white"/>
<path d="M69.2285 446.913C67.256 444.507 66.2033 441.48 66.2584 438.37C66.3135 435.261 67.4728 432.272 69.5292 429.938C69.9469 429.467 70.6987 430.094 70.2804 430.565C68.3614 432.735 67.2819 435.519 67.2365 438.415C67.1911 441.311 68.183 444.127 70.033 446.356C70.4345 446.841 69.6277 447.395 69.2285 446.913Z" fill="white"/>
<path d="M56.5461 470.579C62.8706 471.263 69.2206 469.539 74.3302 465.752C74.8361 465.377 75.3927 466.181 74.8874 466.556C69.563 470.487 62.9511 472.267 56.3713 471.541C55.7442 471.471 55.9224 470.509 56.5461 470.579Z" fill="white"/>
<path d="M93.0329 431.243C93.602 432.332 94.433 433.264 95.4513 433.953C96.4697 434.642 97.6434 435.068 98.8671 435.192C99.4947 435.254 99.3158 436.216 98.6922 436.154C97.3409 436.011 96.0453 435.539 94.9185 434.78C93.7917 434.021 92.8681 432.998 92.2284 431.8C92.1586 431.692 92.1325 431.561 92.1555 431.435C92.1784 431.309 92.2487 431.196 92.352 431.119C92.4589 431.046 92.5903 431.018 92.7178 431.041C92.8453 431.064 92.9585 431.137 93.0329 431.243Z" fill="white"/>
<path d="M289.647 26.9103C290.52 27.9981 291.143 29.2638 291.473 30.6184C291.804 31.973 291.833 33.3835 291.558 34.7505C291.284 36.1176 290.714 37.4079 289.886 38.5306C289.059 39.6533 287.996 40.5811 286.771 41.2487L292.351 74.6774L276.244 67.5335L273.414 36.8843C272.428 34.7537 272.259 32.3357 272.937 30.0885C273.616 27.8414 275.097 25.9211 277.097 24.6917C279.098 23.4623 281.481 23.0091 283.794 23.418C286.107 23.8269 288.189 25.0695 289.647 26.9103Z" fill="#9E616A"/>
<path d="M144.738 489.386L157.908 489.385L164.174 438.616L144.735 438.617L144.738 489.386Z" fill="#9E616A"/>
<path d="M141.379 502.145L183.847 502.143V501.607C183.847 497.226 182.105 493.024 179.005 489.926C175.905 486.828 171.701 485.088 167.317 485.088H167.316L141.378 485.089L141.379 502.145Z" fill="#2F2E41"/>
<path d="M233.115 489.386L246.286 489.385L252.552 438.616L233.113 438.617L233.115 489.386Z" fill="#9E616A"/>
<path d="M229.757 502.145L272.225 502.143V501.607C272.225 497.226 270.483 493.024 267.383 489.926C264.283 486.828 260.079 485.088 255.695 485.088H255.694L229.756 485.089L229.757 502.145Z" fill="#2F2E41"/>
<path d="M238.606 252.481L243.529 258.951C243.529 258.951 243.974 261.973 251.442 286.591L255.538 471.633H230.759L197.638 323.578L163.263 474.604L141.783 475.87L142.793 304.214C142.793 304.214 140.08 268.899 149.696 262.341C159.313 255.782 238.606 252.481 238.606 252.481Z" fill="#2F2E41"/>
<path d="M204.002 106.97C189.641 106.97 178 95.3363 178 80.9851C178 66.6339 189.641 55 204.002 55C218.362 55 230.003 66.6339 230.003 80.9851C230.003 95.3363 218.362 106.97 204.002 106.97Z" fill="#9E616A"/>
<path d="M179.217 82.4168L179.647 81.5587C180.311 80.2315 185.809 69.1977 186.499 66.3607L193.418 67.174L211.437 67.1769L208.933 63.4237L215.553 64.2866C217.973 64.5805 220.286 65.4519 222.298 66.8274C223.533 67.6469 224.576 68.7221 225.358 69.98C227.723 74.0266 231.335 80.6454 231.371 80.7119L231.717 81.3451L234.719 76.2986C234.758 76.1027 238.479 56.7102 226.028 50.1333C225.385 48.8299 219.913 38.5772 206.98 39.2693C205.559 37.6497 203.556 36.6548 201.406 36.4999C198.452 36.346 195.386 37.8965 192.308 41.1277C188.218 45.4193 182.616 51.2965 179.228 57.8222L178.294 59.1546C176.966 61.0616 176.308 63.3548 176.424 65.6751C175.705 69.3783 175.96 73.2047 177.166 76.7794L179.217 82.4168Z" fill="#2F2E41"/>
<path d="M185.564 101.872L171.176 109.82L142.913 117.728L151.35 191.642L149.815 264.449C149.815 264.449 197.655 297.201 243.529 258.951V167.308L240.815 117.728C240.815 117.728 229.838 114.612 224.31 119.988L213.827 106.379L185.564 101.872Z" fill="#00CFFC"/>
<path d="M234.476 124.538L240.815 117.728L275.748 113.774L272.47 60.1543L291.516 46.5759L305.509 122.062L240.87 167.308L234.476 124.538Z" fill="#00CFFC"/>
<path d="M163.664 288.509C163.924 287.139 163.881 285.729 163.537 284.378C163.193 283.027 162.557 281.767 161.674 280.688C160.79 279.609 159.681 278.737 158.423 278.133C157.166 277.529 155.791 277.208 154.396 277.192L143.641 245.051L132.766 258.909L144.646 287.306C144.775 289.65 145.76 291.865 147.414 293.532C149.068 295.198 151.276 296.201 153.62 296.349C155.964 296.497 158.281 295.781 160.133 294.336C161.984 292.891 163.24 290.818 163.664 288.509Z" fill="#9E616A"/>
<path d="M153.531 126.189L142.913 117.728C142.913 117.728 132.056 123.713 128.753 134.444C125.449 145.174 119.667 206.256 119.667 206.256L135.36 284.673L152.91 272.509L144.446 210.384L159.313 164.985L153.531 126.189Z" fill="#00CFFC"/>
<path d="M286.64 0H554.419V65.0296H286.64V0Z" fill="#E6E6E6"/>
<path d="M547.393 58.0078H293.666V7.02173H547.393V58.0078Z" fill="white"/>
<path d="M499.066 51.9393C488.331 51.9393 479.629 43.2427 479.629 32.5149C479.629 21.7871 488.331 13.0905 499.066 13.0905C509.8 13.0905 518.503 21.7871 518.503 32.5149C518.503 43.2427 509.8 51.9393 499.066 51.9393Z" fill="#00CFFC"/>
<path d="M322.556 24.9139H452.586V29.1366H322.556V24.9139Z" fill="#00CFFC"/>
<path d="M322.556 35.8929H452.586V40.1156H322.556V35.8929Z" fill="#00CFFC"/>
<path d="M652 98.839L425.427 115.355V174.806L652 170.602V98.839Z" fill="#E6E6E6"/>
<path d="M644.863 163.028L430.374 168.271V121.442L644.863 107.066V163.028Z" fill="white"/>
<path d="M597.787 116.643C595.31 116.803 592.899 117.501 590.72 118.688C588.535 119.882 586.597 121.479 585.008 123.395C583.357 125.378 582.064 127.633 581.186 130.058C580.26 132.61 579.788 135.305 579.79 138.019C579.781 140.693 580.253 143.346 581.186 145.852C582.051 148.179 583.348 150.322 585.008 152.169C586.602 153.944 588.547 155.369 590.72 156.355C592.939 157.35 595.355 157.828 597.787 157.753C600.275 157.674 602.715 157.047 604.933 155.918C607.179 154.77 609.182 153.197 610.828 151.286C612.556 149.289 613.913 146.999 614.834 144.524C615.811 141.91 616.311 139.142 616.308 136.352C616.319 133.604 615.819 130.877 614.834 128.311C613.925 125.941 612.564 123.77 610.827 121.918C609.173 120.153 607.164 118.758 604.932 117.826C602.672 116.892 600.227 116.487 597.787 116.643Z" fill="#E6E6E6"/>
<path d="M555.587 131.353L451.195 136.79V140.741L555.587 135.673V131.353Z" fill="#E6E6E6"/>
<path d="M555.587 142.585L451.195 147.064V151.015L555.587 146.904V142.585Z" fill="#E6E6E6"/>
<path d="M652 219.611L425.427 215.407V274.858L652 291.374V219.611Z" fill="#E6E6E6"/>
<path d="M644.863 283.146L430.374 268.77V221.946L644.863 227.189V283.146Z" fill="white"/>
<path d="M616.293 252.913C616.183 250.125 615.572 247.38 614.489 244.808C613.472 242.384 612.026 240.164 610.221 238.253C608.503 236.427 606.443 234.956 604.158 233.923C601.899 232.906 599.441 232.404 596.963 232.453C594.531 232.503 592.142 233.104 589.977 234.211C587.848 235.309 585.967 236.832 584.451 238.687C582.87 240.618 581.664 242.827 580.893 245.2C580.063 247.75 579.697 250.429 579.812 253.108C579.916 255.82 580.494 258.493 581.519 261.006C582.49 263.389 583.871 265.582 585.6 267.488C587.26 269.325 589.259 270.827 591.487 271.912C593.711 272.99 596.147 273.566 598.619 273.598C601.067 273.627 603.49 273.096 605.701 272.045C607.892 270.994 609.838 269.495 611.413 267.646C613.07 265.702 614.338 263.459 615.149 261.038C616.027 258.423 616.415 255.669 616.293 252.913Z" fill="#E6E6E6"/>
<path d="M555.587 243.309L451.195 239.198V243.15L555.587 247.628V243.309Z" fill="#E6E6E6"/>
<path d="M555.587 254.539L451.195 249.472V253.423L555.587 258.86V254.539Z" fill="#E6E6E6"/>
<path d="M0.825958 503H315.518C315.737 503 315.947 502.913 316.102 502.758C316.257 502.603 316.344 502.393 316.344 502.175C316.344 501.956 316.257 501.746 316.102 501.591C315.947 501.436 315.737 501.349 315.518 501.349H0.825958C0.606903 501.349 0.39679 501.436 0.241882 501.591C0.0869751 501.746 0 501.956 0 502.175C0 502.393 0.0869751 502.603 0.241882 502.758C0.39679 502.913 0.606903 503 0.825958 503Z" fill="#CACACA"/>
</svg>
